<svg xmlns="http://www.w3.org/2000/svg" xmlns:xlink="http://www.w3.org/1999/xlink" contentStyleType="text/css" data-diagram-type="CLASS" height="641px" preserveAspectRatio="none" style="width:698px;height:641px;background:#FFFFFF;" version="1.1" viewBox="0 0 698 641" width="698px" zoomAndPan="magnify"><defs/><g><!--cluster ?????? ??????--><g id="cluster_&#1055;&#1088;&#1080;&#1084;&#1077;&#1088; &#1076;&#1072;&#1085;&#1085;&#1099;&#1093;"><rect fill="#FFFFFF" fill-opacity="0.00000" height="279" rx="2.5" ry="2.5" style="stroke:#000000;stroke-width:1.5;" width="554" x="75.5" y="7"/><text fill="#000000" font-family="sans-serif" font-size="14" font-weight="bold" lengthAdjust="spacing" textLength="111.1318" x="296.9341" y="23.5332">&#1055;&#1088;&#1080;&#1084;&#1077;&#1088; &#1076;&#1072;&#1085;&#1085;&#1099;&#1093;</text></g><!--class MF1--><g id="elem_MF1"><rect codeLine="56" fill="#F1F1F1" height="114.0469" id="MF1" rx="2.5" ry="2.5" style="stroke:#181818;stroke-width:0.5;" width="141.9717" x="91.5" y="99"/><text fill="#000000" font-family="sans-serif" font-size="14" lengthAdjust="spacing" textLength="78.5791" x="123.1963" y="118.5332">MusicFile #1</text><line style="stroke:#181818;stroke-width:0.5;" x1="92.5" x2="232.4717" y1="126.6094" y2="126.6094"/><text fill="#000000" font-family="sans-serif" font-size="14" lengthAdjust="spacing" textLength="129.9717" x="97.5" y="145.1426">Bohemian Rhapsody</text><line style="stroke:#181818;stroke-width:1;" x1="92.5" x2="232.4717" y1="152.2188" y2="152.2188"/><text fill="#000000" font-family="sans-serif" font-size="14" lengthAdjust="spacing" textLength="42.0342" x="97.5" y="170.752">Queen</text><text fill="#000000" font-family="sans-serif" font-size="14" lengthAdjust="spacing" textLength="127.627" x="97.5" y="188.3613">A Night at the Opera</text><text fill="#000000" font-family="sans-serif" font-size="14" lengthAdjust="spacing" textLength="31.1445" x="97.5" y="205.9707">1975</text></g><!--class EF1--><g id="elem_EF1"><rect codeLine="64" fill="#F1F1F1" height="96.4375" id="EF1" rx="2.5" ry="2.5" style="stroke:#181818;stroke-width:0.5;" width="158.0635" x="455.5" y="174"/><text fill="#000000" font-family="sans-serif" font-size="14" lengthAdjust="spacing" textLength="74.6963" x="497.1836" y="193.5332">ExtraFile #1</text><line style="stroke:#181818;stroke-width:0.5;" x1="456.5" x2="612.5635" y1="201.6094" y2="201.6094"/><text fill="#000000" font-family="sans-serif" font-size="14" lengthAdjust="spacing" textLength="146.0635" x="461.5" y="220.1426">&#1053;&#1086;&#1090;&#1099; &#1076;&#1083;&#1103; &#1092;&#1086;&#1088;&#1090;&#1077;&#1087;&#1080;&#1072;&#1085;&#1086;</text><line style="stroke:#181818;stroke-width:1;" x1="456.5" x2="612.5635" y1="227.2188" y2="227.2188"/><text fill="#000000" font-family="sans-serif" font-size="14" lengthAdjust="spacing" textLength="57.6064" x="461.5" y="245.752">piano.pdf</text><text fill="#000000" font-family="sans-serif" font-size="14" lengthAdjust="spacing" textLength="94.1445" x="461.5" y="263.3613">SheetMusic (0)</text></g><!--class EF2--><g id="elem_EF2"><rect codeLine="71" fill="#F1F1F1" height="96.4375" id="EF2" rx="2.5" ry="2.5" style="stroke:#181818;stroke-width:0.5;" width="89.6836" x="489.5" y="43"/><text fill="#000000" font-family="sans-serif" font-size="14" lengthAdjust="spacing" textLength="74.6963" x="496.9937" y="62.5332">ExtraFile #2</text><line style="stroke:#181818;stroke-width:0.5;" x1="490.5" x2="578.1836" y1="70.6094" y2="70.6094"/><text fill="#000000" font-family="sans-serif" font-size="14" lengthAdjust="spacing" textLength="77.6836" x="495.5" y="89.1426">&#1058;&#1077;&#1082;&#1089;&#1090; &#1087;&#1077;&#1089;&#1085;&#1080;</text><line style="stroke:#181818;stroke-width:1;" x1="490.5" x2="578.1836" y1="96.2188" y2="96.2188"/><text fill="#000000" font-family="sans-serif" font-size="14" lengthAdjust="spacing" textLength="50.5518" x="495.5" y="114.752">lyrics.txt</text><text fill="#000000" font-family="sans-serif" font-size="14" lengthAdjust="spacing" textLength="57.5586" x="495.5" y="132.3613">Lyrics (2)</text></g><!--class MusicFile--><g id="elem_MusicFile"><rect codeLine="9" fill="#F1F1F1" height="237.3125" id="MusicFile" rx="2.5" ry="2.5" style="stroke:#181818;stroke-width:0.5;" width="310.7168" x="7" y="397.5"/><text fill="#000000" font-family="sans-serif" font-size="14" lengthAdjust="spacing" textLength="59.1172" x="132.7998" y="417.0332">MusicFile</text><line style="stroke:#181818;stroke-width:0.5;" x1="8" x2="316.7168" y1="425.1094" y2="425.1094"/><ellipse cx="18" cy="439.4141" fill="#000000" rx="3" ry="3" style="stroke:#000000;stroke-width:1;"/><text fill="#000000" font-family="sans-serif" font-size="14" lengthAdjust="spacing" textLength="83.2549" x="27" y="443.6426">id : INT &#171;PK&#187;</text><line style="stroke:#181818;stroke-width:1;" x1="8" x2="316.7168" y1="450.7188" y2="450.7188"/><ellipse cx="18" cy="465.0234" fill="#000000" rx="3" ry="3" style="stroke:#000000;stroke-width:1;"/><text fill="#000000" font-family="sans-serif" font-size="14" lengthAdjust="spacing" textLength="100.3652" x="27" y="469.252">filename : TEXT</text><ellipse cx="18" cy="482.6328" fill="#000000" rx="3" ry="3" style="stroke:#000000;stroke-width:1;"/><text fill="#000000" font-family="sans-serif" font-size="14" lengthAdjust="spacing" textLength="92.5928" x="27" y="486.8613">filepath : TEXT</text><ellipse cx="18" cy="500.2422" fill="#000000" rx="3" ry="3" style="stroke:#000000;stroke-width:1;"/><text fill="#000000" font-family="sans-serif" font-size="14" lengthAdjust="spacing" textLength="69.2344" x="27" y="504.4707">title : TEXT</text><ellipse cx="18" cy="517.8516" fill="#000000" rx="3" ry="3" style="stroke:#000000;stroke-width:1;"/><text fill="#000000" font-family="sans-serif" font-size="14" lengthAdjust="spacing" textLength="77.7861" x="27" y="522.0801">artist : TEXT</text><text fill="#000000" font-family="sans-serif" font-size="14" lengthAdjust="spacing" textLength="85.5791" x="27" y="539.6895">album : TEXT</text><text fill="#000000" font-family="sans-serif" font-size="14" lengthAdjust="spacing" textLength="61.4551" x="27" y="557.2988">year : INT</text><text fill="#000000" font-family="sans-serif" font-size="14" lengthAdjust="spacing" textLength="83.2549" x="27" y="574.9082">genre : TEXT</text><ellipse cx="18" cy="588.2891" fill="#000000" rx="3" ry="3" style="stroke:#000000;stroke-width:1;"/><text fill="#000000" font-family="sans-serif" font-size="14" lengthAdjust="spacing" textLength="101.1309" x="27" y="592.5176">filesize : BIGINT</text><ellipse cx="18" cy="605.8984" fill="#000000" rx="3" ry="3" style="stroke:#000000;stroke-width:1;"/><text fill="#000000" font-family="sans-serif" font-size="14" lengthAdjust="spacing" textLength="130.7236" x="27" y="610.127">duration : INTERVAL</text><ellipse cx="18" cy="623.5078" fill="#000000" rx="3" ry="3" style="stroke:#000000;stroke-width:1;"/><text fill="#000000" font-family="sans-serif" font-size="14" lengthAdjust="spacing" textLength="284.7168" x="27" y="627.7363">uploadDate : TIMESTAMP WITH TIME ZONE</text></g><!--class ExtraFile--><g id="elem_ExtraFile"><rect codeLine="25" fill="#F1F1F1" height="202.0938" id="ExtraFile" rx="2.5" ry="2.5" style="stroke:#181818;stroke-width:0.5;" width="313.041" x="378" y="415"/><text fill="#000000" font-family="sans-serif" font-size="14" lengthAdjust="spacing" textLength="55.2344" x="506.9033" y="434.5332">ExtraFile</text><line style="stroke:#181818;stroke-width:0.5;" x1="379" x2="690.041" y1="442.6094" y2="442.6094"/><ellipse cx="389" cy="456.9141" fill="#000000" rx="3" ry="3" style="stroke:#000000;stroke-width:1;"/><text fill="#000000" font-family="sans-serif" font-size="14" lengthAdjust="spacing" textLength="84.0342" x="398" y="461.1426">Id : INT &#171;PK&#187;</text><line style="stroke:#181818;stroke-width:1;" x1="379" x2="690.041" y1="468.2188" y2="468.2188"/><ellipse cx="389" cy="482.5234" fill="#000000" rx="3" ry="3" style="stroke:#000000;stroke-width:1;"/><text fill="#000000" font-family="sans-serif" font-size="14" lengthAdjust="spacing" textLength="155.5928" x="398" y="486.752">OriginalFileName : TEXT</text><ellipse cx="389" cy="500.1328" fill="#000000" rx="3" ry="3" style="stroke:#000000;stroke-width:1;"/><text fill="#000000" font-family="sans-serif" font-size="14" lengthAdjust="spacing" textLength="148.5996" x="398" y="504.3613">StoredFileName : TEXT</text><ellipse cx="389" cy="517.7422" fill="#000000" rx="3" ry="3" style="stroke:#000000;stroke-width:1;"/><text fill="#000000" font-family="sans-serif" font-size="14" lengthAdjust="spacing" textLength="98.8066" x="398" y="521.9707">FilePath : TEXT</text><ellipse cx="389" cy="535.3516" fill="#000000" rx="3" ry="3" style="stroke:#000000;stroke-width:1;"/><text fill="#000000" font-family="sans-serif" font-size="14" lengthAdjust="spacing" textLength="117.4756" x="398" y="539.5801">Description : TEXT</text><ellipse cx="389" cy="552.9609" fill="#000000" rx="3" ry="3" style="stroke:#000000;stroke-width:1;"/><text fill="#000000" font-family="sans-serif" font-size="14" lengthAdjust="spacing" textLength="87.9033" x="398" y="557.1895">FileType : INT</text><ellipse cx="389" cy="570.5703" fill="#000000" rx="3" ry="3" style="stroke:#000000;stroke-width:1;"/><text fill="#000000" font-family="sans-serif" font-size="14" lengthAdjust="spacing" textLength="108.1309" x="398" y="574.7988">FileSize : BIGINT</text><ellipse cx="389" cy="588.1797" fill="#000000" rx="3" ry="3" style="stroke:#000000;stroke-width:1;"/><text fill="#000000" font-family="sans-serif" font-size="14" lengthAdjust="spacing" textLength="287.041" x="398" y="592.4082">UploadDate : TIMESTAMP WITH TIME ZONE</text><ellipse cx="389" cy="605.7891" fill="#000000" rx="3" ry="3" style="stroke:#000000;stroke-width:1;"/><text fill="#000000" font-family="sans-serif" font-size="14" lengthAdjust="spacing" textLength="142.3652" x="398" y="610.0176">MusicFileId : INT &#171;FK&#187;</text></g><g id="elem_GMN5"><path d="M52,303.5 L52,362.5547 A0,0 0 0 0 52,362.5547 L159,362.5547 L163,397.35 L167,362.5547 L273.4526,362.5547 A0,0 0 0 0 273.4526,362.5547 L273.4526,313.5 L263.4526,303.5 L52,303.5 A0,0 0 0 0 52,303.5 " fill="#FEFFDD" style="stroke:#181818;stroke-width:0.5;"/><path d="M263.4526,303.5 L263.4526,313.5 L273.4526,313.5 L263.4526,303.5 " fill="#FEFFDD" style="stroke:#181818;stroke-width:0.5;"/><text fill="#000000" font-family="sans-serif" font-size="13" lengthAdjust="spacing" textLength="200.4526" x="58" y="321.9951">&#1054;&#1089;&#1085;&#1086;&#1074;&#1085;&#1072;&#1103; &#1089;&#1091;&#1097;&#1085;&#1086;&#1089;&#1090;&#1100; - &#1072;&#1091;&#1076;&#1080;&#1086;&#1092;&#1072;&#1081;&#1083;</text><ellipse cx="63.5" cy="333.7031" fill="#000000" rx="2.5" ry="2.5"/><text fill="#000000" font-family="sans-serif" font-size="13" lengthAdjust="spacing" textLength="126.6484" x="70" y="338.3467">- &#1086;&#1073;&#1103;&#1079;&#1072;&#1090;&#1077;&#1083;&#1100;&#1085;&#1099;&#1077; &#1087;&#1086;&#1083;&#1103;</text><text fill="#000000" font-family="sans-serif" font-size="13" lengthAdjust="spacing" textLength="128.5273" x="58" y="354.6982">PK - &#1087;&#1077;&#1088;&#1074;&#1080;&#1095;&#1085;&#1099;&#1081; &#1082;&#1083;&#1102;&#1095;</text></g><g id="elem_GMN8"><path d="M404,320.5 L404,379.5547 A0,0 0 0 0 404,379.5547 L531,379.5547 L535,414.82 L539,379.5547 L664.7129,379.5547 A0,0 0 0 0 664.7129,379.5547 L664.7129,330.5 L654.7129,320.5 L404,320.5 A0,0 0 0 0 404,320.5 " fill="#FEFFDD" style="stroke:#181818;stroke-width:0.5;"/><path d="M654.7129,320.5 L654.7129,330.5 L664.7129,330.5 L654.7129,320.5 " fill="#FEFFDD" style="stroke:#181818;stroke-width:0.5;"/><text fill="#000000" font-family="sans-serif" font-size="13" lengthAdjust="spacing" textLength="239.2241" x="410" y="338.9951">&#1044;&#1086;&#1087;&#1086;&#1083;&#1085;&#1080;&#1090;&#1077;&#1083;&#1100;&#1085;&#1099;&#1077; &#1092;&#1072;&#1081;&#1083;&#1099; (&#1085;&#1086;&#1090;&#1099;, &#1090;&#1077;&#1082;&#1089;&#1090;&#1099;)</text><text fill="#000000" font-family="sans-serif" font-size="13" lengthAdjust="spacing" textLength="196.5552" x="410" y="355.3467">FK - &#1074;&#1085;&#1077;&#1096;&#1085;&#1080;&#1081; &#1082;&#1083;&#1102;&#1095; &#1082; MusicFile.id</text><text fill="#000000" font-family="sans-serif" font-size="13" lengthAdjust="spacing" textLength="239.7129" x="410" y="371.6982">&#1057;&#1074;&#1103;&#1079;&#1100;: &#1086;&#1076;&#1080;&#1085; MusicFile &#8594; &#1084;&#1085;&#1086;&#1075;&#1086; ExtraFile</text></g><!--link MusicFile to ExtraFile--><g id="link_MusicFile_ExtraFile"><path codeLine="39" d="M326.11,516 C345.82,516 340,516 359.72,516 " fill="#FFFFFF" fill-opacity="0.00000" id="MusicFile-ExtraFile" style="stroke:#181818;stroke-width:1;"/><line style="stroke:#181818;stroke-width:1;" x1="322.11" x2="322.11" y1="520" y2="512"/><line style="stroke:#181818;stroke-width:1;" x1="325.11" x2="325.11" y1="520" y2="512"/><line style="stroke:#181818;stroke-width:1;" x1="326.11" x2="318.11" y1="516" y2="516"/><line style="stroke:#181818;stroke-width:1;" x1="369.72" x2="377.72" y1="516" y2="510"/><line style="stroke:#181818;stroke-width:1;" x1="369.72" x2="377.72" y1="516" y2="522"/><line style="stroke:#181818;stroke-width:1;" x1="369.72" x2="377.72" y1="516" y2="516"/><ellipse cx="363.72" cy="516" fill="#FFFFFF" fill-opacity="0.00000" rx="4" ry="4" style="stroke:#181818;stroke-width:1;"/><text fill="#000000" font-family="sans-serif" font-size="13" lengthAdjust="spacing" textLength="36.6133" x="310.92" y="530.4951">&#1080;&#1084;&#1077;&#1077;&#1090;</text></g><!--link MF1 to EF1--><g id="link_MF1_EF1"><path codeLine="80" d="M233.79,193.5 C297.18,193.5 383.75,193.5 449.41,193.5 " fill="#FFFFFF" fill-opacity="0.00000" id="MF1-to-EF1" style="stroke:#181818;stroke-width:1;"/><polygon fill="#181818" points="455.41,193.5,446.41,189.5,450.41,193.5,446.41,197.5,455.41,193.5" style="stroke:#181818;stroke-width:1;"/><text fill="#000000" font-family="sans-serif" font-size="13" lengthAdjust="spacing" textLength="57.6875" x="286.6" y="207.9951">&#1089;&#1086;&#1076;&#1077;&#1088;&#1078;&#1080;&#1090;</text></g><!--link MF1 to EF2--><g id="link_MF1_EF2"><path codeLine="81" d="M233.79,119 C309.21,119 419.91,119 483.48,119 " fill="#FFFFFF" fill-opacity="0.00000" id="MF1-to-EF2" style="stroke:#181818;stroke-width:1;"/><polygon fill="#181818" points="489.48,119,480.48,115,484.48,119,480.48,123,489.48,119" style="stroke:#181818;stroke-width:1;"/><text fill="#000000" font-family="sans-serif" font-size="13" lengthAdjust="spacing" textLength="57.6875" x="303.63" y="133.4951">&#1089;&#1086;&#1076;&#1077;&#1088;&#1078;&#1080;&#1090;</text></g><!--SRC=[ZLJTJXD15BxVfpYf5w1nYP0OOqD88BRQ00Lf_ObtOtUW4vRTpNQQK8442ue68z5ugqQVeAA5Gg6ymimh-2IUETjsj_oe5srspZcxvplVzvqP0lLPDVHBNTURggEErB5gWUheEXv-OAYX3bHJdQgMthFAmk5G4c79vLPbMNW12zaAkCBZiXPmy4DPzXE9W9MMsH8lo9hB8UGboRmbVDFbYnAa3w5OAajmXCa8txEi8L1Vz4lirL7x-D_GUu2ujlHR4oA4xzAWJlIMEjIxYBEXslgTEiNd8z3RU3nIROjxKiWQp5OhefGLs7ZD0hW1me4qvF9561-VdvwOm9XjKs8HQposmZ5Tp3mjzcC1a-La3B_g3XInK8gAZ2FCVLvTYOyrpiAe9HwMk1TUw50HBqniAdS_Ahe1JZLaXehelSp2uyaPYbS3rsVEFIRf6xdPJA4uEJiFJtB51tI4PtFvZBL137uR90pKBwJp37zj4h6EOdPPqw_wh1d6UynbLcN84ipbhc9k3WKK7dDDRVuSWmNfXzovB6DYy-UulSShfL04tT47Iel6M3qQer3X0c-F_eiVKzctHMAgh9ag8k-BEaFBDv4pP2colMgY2TM-tbE7j1YOQwbJ6-tNiTK9cVKdHawis77hwxRjhoM8J4FAbE07cxgUeavViG-5z0vAGEi5vlkebDwZ9UWjdUVZMD8Fm5-CuUCm_zmLi07ZMmIuqzyFmu8DjDncf4RI4JXhP1Li2p0_RGhF4E8czcWXq6ZLSFIsVgztq30E67JM0CR-s0RZfwlCPsZjGjAxC4oewtht9b3HCKsmUnq_aIKKPiQcVaE2n0Zm8QPaH3YcuxT8Axegkc8bBeFVhpz2NxLE0ciy2uhpWJRY61a5CaGabBaBJun6lqWnsY2hUyUXmB6YcmCbATgZxdAbOYZNHbF0AZ2R7QK2W2c_p5S4ys2Xp8AAxzGeIii6yB3AkKTFav2dYvFX9LhcC1Vma55YzEwTs_YmWRz4mzY5tOQPVaEy-8bq0xTj3BIDvqqIu0n7CHDqaXW21EUF1CuYdGfbpYMD0yEthl-ryLYtyLYlyVUUnf6_Z8zRoKvkBHIboeXSbNISeICCZqLjebtzQYH2aEHXT7jYIo_LpJ9Cs_O44P0svSOU9drWh9b8ZrsM_WC0]--></g></svg>