<svg xmlns="http://www.w3.org/2000/svg" xmlns:xlink="http://www.w3.org/1999/xlink" contentStyleType="text/css" data-diagram-type="CLASS" height="1215px" preserveAspectRatio="none" style="width:1034px;height:1215px;background:#FFFFFF;" version="1.1" viewBox="0 0 1034 1215" width="1034px" zoomAndPan="magnify"><defs/><g><!--cluster ?????? ??????--><g id="cluster_&#1055;&#1088;&#1080;&#1084;&#1077;&#1088; &#1076;&#1072;&#1085;&#1085;&#1099;&#1093;"><rect fill="#FFFFFF" fill-opacity="0.00000" height="412" rx="2.5" ry="2.5" style="stroke:#000000;stroke-width:1.5;" width="900.5" x="65" y="7"/><text fill="#000000" font-family="sans-serif" font-size="14" font-weight="bold" lengthAdjust="spacing" textLength="111.1318" x="459.6841" y="23.5332">&#1055;&#1088;&#1080;&#1084;&#1077;&#1088; &#1076;&#1072;&#1085;&#1085;&#1099;&#1093;</text></g><!--class AR1--><g id="elem_AR1"><rect codeLine="114" fill="#F1F1F1" height="96.4375" id="AR1" rx="2.5" ry="2.5" style="stroke:#181818;stroke-width:0.5;" width="57.3516" x="116" y="43"/><text fill="#000000" font-family="sans-serif" font-size="14" lengthAdjust="spacing" textLength="51.3516" x="119" y="62.5332">Artist #1</text><line style="stroke:#181818;stroke-width:0.5;" x1="117" x2="172.3516" y1="70.6094" y2="70.6094"/><text fill="#000000" font-family="sans-serif" font-size="14" lengthAdjust="spacing" textLength="42.0342" x="122" y="89.1426">Queen</text><line style="stroke:#181818;stroke-width:1;" x1="117" x2="172.3516" y1="96.2188" y2="96.2188"/><text fill="#000000" font-family="sans-serif" font-size="14" lengthAdjust="spacing" textLength="19.4482" x="122" y="114.752">UK</text><text fill="#000000" font-family="sans-serif" font-size="14" lengthAdjust="spacing" textLength="31.1445" x="122" y="132.3613">1970</text></g><!--class GR1--><g id="elem_GR1"><rect codeLine="121" fill="#F1F1F1" height="78.8281" id="GR1" rx="2.5" ry="2.5" style="stroke:#181818;stroke-width:0.5;" width="127.1514" x="81" y="174.5"/><text fill="#000000" font-family="sans-serif" font-size="14" lengthAdjust="spacing" textLength="58.3721" x="115.3896" y="194.0332">Genre #1</text><line style="stroke:#181818;stroke-width:0.5;" x1="82" x2="207.1514" y1="202.1094" y2="202.1094"/><text fill="#000000" font-family="sans-serif" font-size="14" lengthAdjust="spacing" textLength="31.8965" x="87" y="220.6426">Rock</text><line style="stroke:#181818;stroke-width:1;" x1="82" x2="207.1514" y1="227.7188" y2="227.7188"/><text fill="#000000" font-family="sans-serif" font-size="14" lengthAdjust="spacing" textLength="115.1514" x="87" y="246.252">Classic rock genre</text></g><!--class FE1--><g id="elem_FE1"><rect codeLine="127" fill="#F1F1F1" height="114.0469" id="FE1" rx="2.5" ry="2.5" style="stroke:#181818;stroke-width:0.5;" width="109.5029" x="89.5" y="289"/><text fill="#000000" font-family="sans-serif" font-size="14" lengthAdjust="spacing" textLength="103.5029" x="92.5" y="308.5332">FileExtension #1</text><line style="stroke:#181818;stroke-width:0.5;" x1="90.5" x2="198.0029" y1="316.6094" y2="316.6094"/><text fill="#000000" font-family="sans-serif" font-size="14" lengthAdjust="spacing" textLength="31.124" x="95.5" y="335.1426">.mp3</text><line style="stroke:#181818;stroke-width:1;" x1="90.5" x2="198.0029" y1="342.2188" y2="342.2188"/><text fill="#000000" font-family="sans-serif" font-size="14" lengthAdjust="spacing" textLength="73.165" x="95.5" y="360.752">audio/mpeg</text><text fill="#000000" font-family="sans-serif" font-size="14" lengthAdjust="spacing" textLength="34.2549" x="95.5" y="378.3613">audio</text><text fill="#000000" font-family="sans-serif" font-size="14" lengthAdjust="spacing" textLength="68.4824" x="95.5" y="395.9707">MP3 Audio</text></g><!--class FE2--><g id="elem_FE2"><rect codeLine="135" fill="#F1F1F1" height="114.0469" id="FE2" rx="2.5" ry="2.5" style="stroke:#181818;stroke-width:0.5;" width="109.5029" x="443.5" y="289"/><text fill="#000000" font-family="sans-serif" font-size="14" lengthAdjust="spacing" textLength="103.5029" x="446.5" y="308.5332">FileExtension #2</text><line style="stroke:#181818;stroke-width:0.5;" x1="444.5" x2="552.0029" y1="316.6094" y2="316.6094"/><text fill="#000000" font-family="sans-serif" font-size="14" lengthAdjust="spacing" textLength="23.3516" x="449.5" y="335.1426">.pdf</text><line style="stroke:#181818;stroke-width:1;" x1="444.5" x2="552.0029" y1="342.2188" y2="342.2188"/><text fill="#000000" font-family="sans-serif" font-size="14" lengthAdjust="spacing" textLength="90.2891" x="449.5" y="360.752">application/pdf</text><text fill="#000000" font-family="sans-serif" font-size="14" lengthAdjust="spacing" textLength="61.4824" x="449.5" y="378.3613">document</text><text fill="#000000" font-family="sans-serif" font-size="14" lengthAdjust="spacing" textLength="95.6963" x="449.5" y="395.9707">PDF Document</text></g><!--class MF1--><g id="elem_MF1"><rect codeLine="144" fill="#F1F1F1" height="114.0469" id="MF1" rx="2.5" ry="2.5" style="stroke:#181818;stroke-width:0.5;" width="141.9717" x="427.5" y="140"/><text fill="#000000" font-family="sans-serif" font-size="14" lengthAdjust="spacing" textLength="78.5791" x="459.1963" y="159.5332">MusicFile #1</text><line style="stroke:#181818;stroke-width:0.5;" x1="428.5" x2="568.4717" y1="167.6094" y2="167.6094"/><text fill="#000000" font-family="sans-serif" font-size="14" lengthAdjust="spacing" textLength="129.9717" x="433.5" y="186.1426">Bohemian Rhapsody</text><line style="stroke:#181818;stroke-width:1;" x1="428.5" x2="568.4717" y1="193.2188" y2="193.2188"/><text fill="#000000" font-family="sans-serif" font-size="14" lengthAdjust="spacing" textLength="42.0342" x="433.5" y="211.752">Queen</text><text fill="#000000" font-family="sans-serif" font-size="14" lengthAdjust="spacing" textLength="127.627" x="433.5" y="229.3613">A Night at the Opera</text><text fill="#000000" font-family="sans-serif" font-size="14" lengthAdjust="spacing" textLength="31.1445" x="433.5" y="246.9707">1975</text></g><!--class EF1--><g id="elem_EF1"><rect codeLine="153" fill="#F1F1F1" height="96.4375" id="EF1" rx="2.5" ry="2.5" style="stroke:#181818;stroke-width:0.5;" width="158.0635" x="791.5" y="224"/><text fill="#000000" font-family="sans-serif" font-size="14" lengthAdjust="spacing" textLength="74.6963" x="833.1836" y="243.5332">ExtraFile #1</text><line style="stroke:#181818;stroke-width:0.5;" x1="792.5" x2="948.5635" y1="251.6094" y2="251.6094"/><text fill="#000000" font-family="sans-serif" font-size="14" lengthAdjust="spacing" textLength="146.0635" x="797.5" y="270.1426">&#1053;&#1086;&#1090;&#1099; &#1076;&#1083;&#1103; &#1092;&#1086;&#1088;&#1090;&#1077;&#1087;&#1080;&#1072;&#1085;&#1086;</text><line style="stroke:#181818;stroke-width:1;" x1="792.5" x2="948.5635" y1="277.2188" y2="277.2188"/><text fill="#000000" font-family="sans-serif" font-size="14" lengthAdjust="spacing" textLength="57.6064" x="797.5" y="295.752">piano.pdf</text><text fill="#000000" font-family="sans-serif" font-size="14" lengthAdjust="spacing" textLength="94.1445" x="797.5" y="313.3613">SheetMusic (0)</text></g><!--class MusicFile--><g id="elem_MusicFile"><rect codeLine="9" fill="#F1F1F1" height="254.9219" id="MusicFile" rx="2.5" ry="2.5" style="stroke:#181818;stroke-width:0.5;" width="310.7168" x="343" y="808.5"/><text fill="#000000" font-family="sans-serif" font-size="14" lengthAdjust="spacing" textLength="59.1172" x="468.7998" y="828.0332">MusicFile</text><line style="stroke:#181818;stroke-width:0.5;" x1="344" x2="652.7168" y1="836.1094" y2="836.1094"/><ellipse cx="354" cy="850.4141" fill="#000000" rx="3" ry="3" style="stroke:#000000;stroke-width:1;"/><text fill="#000000" font-family="sans-serif" font-size="14" lengthAdjust="spacing" textLength="83.2549" x="363" y="854.6426">id : INT &#171;PK&#187;</text><line style="stroke:#181818;stroke-width:1;" x1="344" x2="652.7168" y1="861.7188" y2="861.7188"/><ellipse cx="354" cy="876.0234" fill="#000000" rx="3" ry="3" style="stroke:#000000;stroke-width:1;"/><text fill="#000000" font-family="sans-serif" font-size="14" lengthAdjust="spacing" textLength="100.3652" x="363" y="880.252">filename : TEXT</text><ellipse cx="354" cy="893.6328" fill="#000000" rx="3" ry="3" style="stroke:#000000;stroke-width:1;"/><text fill="#000000" font-family="sans-serif" font-size="14" lengthAdjust="spacing" textLength="92.5928" x="363" y="897.8613">filepath : TEXT</text><ellipse cx="354" cy="911.2422" fill="#000000" rx="3" ry="3" style="stroke:#000000;stroke-width:1;"/><text fill="#000000" font-family="sans-serif" font-size="14" lengthAdjust="spacing" textLength="69.2344" x="363" y="915.4707">title : TEXT</text><ellipse cx="354" cy="928.8516" fill="#000000" rx="3" ry="3" style="stroke:#000000;stroke-width:1;"/><text fill="#000000" font-family="sans-serif" font-size="14" lengthAdjust="spacing" textLength="113.5859" x="363" y="933.0801">artistId : INT &#171;FK&#187;</text><text fill="#000000" font-family="sans-serif" font-size="14" lengthAdjust="spacing" textLength="85.5791" x="363" y="950.6895">album : TEXT</text><ellipse cx="354" cy="964.0703" fill="#000000" rx="3" ry="3" style="stroke:#000000;stroke-width:1;"/><text fill="#000000" font-family="sans-serif" font-size="14" lengthAdjust="spacing" textLength="119.0547" x="363" y="968.2988">genreId : INT &#171;FK&#187;</text><text fill="#000000" font-family="sans-serif" font-size="14" lengthAdjust="spacing" textLength="61.4551" x="363" y="985.9082">year : INT</text><ellipse cx="354" cy="999.2891" fill="#000000" rx="3" ry="3" style="stroke:#000000;stroke-width:1;"/><text fill="#000000" font-family="sans-serif" font-size="14" lengthAdjust="spacing" textLength="101.1309" x="363" y="1003.5176">filesize : BIGINT</text><ellipse cx="354" cy="1016.8984" fill="#000000" rx="3" ry="3" style="stroke:#000000;stroke-width:1;"/><text fill="#000000" font-family="sans-serif" font-size="14" lengthAdjust="spacing" textLength="130.7236" x="363" y="1021.127">duration : INTERVAL</text><ellipse cx="354" cy="1034.5078" fill="#000000" rx="3" ry="3" style="stroke:#000000;stroke-width:1;"/><text fill="#000000" font-family="sans-serif" font-size="14" lengthAdjust="spacing" textLength="284.7168" x="363" y="1038.7363">uploadDate : TIMESTAMP WITH TIME ZONE</text><ellipse cx="354" cy="1052.1172" fill="#000000" rx="3" ry="3" style="stroke:#000000;stroke-width:1;"/><text fill="#000000" font-family="sans-serif" font-size="14" lengthAdjust="spacing" textLength="167.2891" x="363" y="1056.3457">FileExtensionId : INT &#171;FK&#187;</text></g><!--class Artist--><g id="elem_Artist"><rect codeLine="26" fill="#F1F1F1" height="131.6563" id="Artist" rx="2.5" ry="2.5" style="stroke:#181818;stroke-width:0.5;" width="187.8271" x="50.5" y="850"/><text fill="#000000" font-family="sans-serif" font-size="14" lengthAdjust="spacing" textLength="31.8896" x="128.4688" y="869.5332">Artist</text><line style="stroke:#181818;stroke-width:0.5;" x1="51.5" x2="237.3271" y1="877.6094" y2="877.6094"/><ellipse cx="61.5" cy="891.9141" fill="#000000" rx="3" ry="3" style="stroke:#000000;stroke-width:1;"/><text fill="#000000" font-family="sans-serif" font-size="14" lengthAdjust="spacing" textLength="84.0342" x="70.5" y="896.1426">Id : INT &#171;PK&#187;</text><line style="stroke:#181818;stroke-width:1;" x1="51.5" x2="237.3271" y1="903.2188" y2="903.2188"/><ellipse cx="61.5" cy="917.5234" fill="#000000" rx="3" ry="3" style="stroke:#000000;stroke-width:1;"/><text fill="#000000" font-family="sans-serif" font-size="14" lengthAdjust="spacing" textLength="150.1514" x="70.5" y="921.752">Name : VARCHAR(200)</text><text fill="#000000" font-family="sans-serif" font-size="14" lengthAdjust="spacing" textLength="67.6826" x="70.5" y="939.3613">Bio : TEXT</text><text fill="#000000" font-family="sans-serif" font-size="14" lengthAdjust="spacing" textLength="161.8271" x="70.5" y="956.9707">Country : VARCHAR(100)</text><text fill="#000000" font-family="sans-serif" font-size="14" lengthAdjust="spacing" textLength="112.0273" x="70.5" y="974.5801">FormedYear : INT</text></g><!--class Genre--><g id="elem_Genre"><rect codeLine="36" fill="#F1F1F1" height="96.4375" id="Genre" rx="2.5" ry="2.5" style="stroke:#181818;stroke-width:0.5;" width="176.1514" x="56.5" y="1112"/><text fill="#000000" font-family="sans-serif" font-size="14" lengthAdjust="spacing" textLength="38.9102" x="125.1206" y="1131.5332">Genre</text><line style="stroke:#181818;stroke-width:0.5;" x1="57.5" x2="231.6514" y1="1139.6094" y2="1139.6094"/><ellipse cx="67.5" cy="1153.9141" fill="#000000" rx="3" ry="3" style="stroke:#000000;stroke-width:1;"/><text fill="#000000" font-family="sans-serif" font-size="14" lengthAdjust="spacing" textLength="84.0342" x="76.5" y="1158.1426">Id : INT &#171;PK&#187;</text><line style="stroke:#181818;stroke-width:1;" x1="57.5" x2="231.6514" y1="1165.2188" y2="1165.2188"/><ellipse cx="67.5" cy="1179.5234" fill="#000000" rx="3" ry="3" style="stroke:#000000;stroke-width:1;"/><text fill="#000000" font-family="sans-serif" font-size="14" lengthAdjust="spacing" textLength="150.1514" x="76.5" y="1183.752">Name : VARCHAR(100)</text><text fill="#000000" font-family="sans-serif" font-size="14" lengthAdjust="spacing" textLength="117.4756" x="76.5" y="1201.3613">Description : TEXT</text></g><!--class ExtraFile--><g id="elem_ExtraFile"><rect codeLine="44" fill="#F1F1F1" height="219.7031" id="ExtraFile" rx="2.5" ry="2.5" style="stroke:#181818;stroke-width:0.5;" width="313.041" x="714" y="677"/><text fill="#000000" font-family="sans-serif" font-size="14" lengthAdjust="spacing" textLength="55.2344" x="842.9033" y="696.5332">ExtraFile</text><line style="stroke:#181818;stroke-width:0.5;" x1="715" x2="1026.041" y1="704.6094" y2="704.6094"/><ellipse cx="725" cy="718.9141" fill="#000000" rx="3" ry="3" style="stroke:#000000;stroke-width:1;"/><text fill="#000000" font-family="sans-serif" font-size="14" lengthAdjust="spacing" textLength="84.0342" x="734" y="723.1426">Id : INT &#171;PK&#187;</text><line style="stroke:#181818;stroke-width:1;" x1="715" x2="1026.041" y1="730.2188" y2="730.2188"/><ellipse cx="725" cy="744.5234" fill="#000000" rx="3" ry="3" style="stroke:#000000;stroke-width:1;"/><text fill="#000000" font-family="sans-serif" font-size="14" lengthAdjust="spacing" textLength="155.5928" x="734" y="748.752">OriginalFileName : TEXT</text><ellipse cx="725" cy="762.1328" fill="#000000" rx="3" ry="3" style="stroke:#000000;stroke-width:1;"/><text fill="#000000" font-family="sans-serif" font-size="14" lengthAdjust="spacing" textLength="148.5996" x="734" y="766.3613">StoredFileName : TEXT</text><ellipse cx="725" cy="779.7422" fill="#000000" rx="3" ry="3" style="stroke:#000000;stroke-width:1;"/><text fill="#000000" font-family="sans-serif" font-size="14" lengthAdjust="spacing" textLength="98.8066" x="734" y="783.9707">FilePath : TEXT</text><ellipse cx="725" cy="797.3516" fill="#000000" rx="3" ry="3" style="stroke:#000000;stroke-width:1;"/><text fill="#000000" font-family="sans-serif" font-size="14" lengthAdjust="spacing" textLength="117.4756" x="734" y="801.5801">Description : TEXT</text><ellipse cx="725" cy="814.9609" fill="#000000" rx="3" ry="3" style="stroke:#000000;stroke-width:1;"/><text fill="#000000" font-family="sans-serif" font-size="14" lengthAdjust="spacing" textLength="87.9033" x="734" y="819.1895">FileType : INT</text><ellipse cx="725" cy="832.5703" fill="#000000" rx="3" ry="3" style="stroke:#000000;stroke-width:1;"/><text fill="#000000" font-family="sans-serif" font-size="14" lengthAdjust="spacing" textLength="108.1309" x="734" y="836.7988">FileSize : BIGINT</text><ellipse cx="725" cy="850.1797" fill="#000000" rx="3" ry="3" style="stroke:#000000;stroke-width:1;"/><text fill="#000000" font-family="sans-serif" font-size="14" lengthAdjust="spacing" textLength="287.041" x="734" y="854.4082">UploadDate : TIMESTAMP WITH TIME ZONE</text><ellipse cx="725" cy="867.7891" fill="#000000" rx="3" ry="3" style="stroke:#000000;stroke-width:1;"/><text fill="#000000" font-family="sans-serif" font-size="14" lengthAdjust="spacing" textLength="142.3652" x="734" y="872.0176">MusicFileId : INT &#171;FK&#187;</text><ellipse cx="725" cy="885.3984" fill="#000000" rx="3" ry="3" style="stroke:#000000;stroke-width:1;"/><text fill="#000000" font-family="sans-serif" font-size="14" lengthAdjust="spacing" textLength="167.2891" x="734" y="889.627">FileExtensionId : INT &#171;FK&#187;</text></g><!--class FileExtension--><g id="elem_FileExtension"><rect codeLine="59" fill="#F1F1F1" height="131.6563" id="FileExtension" rx="2.5" ry="2.5" style="stroke:#181818;stroke-width:0.5;" width="204.1514" x="42.5" y="549"/><text fill="#000000" font-family="sans-serif" font-size="14" lengthAdjust="spacing" textLength="84.041" x="102.5552" y="568.5332">FileExtension</text><line style="stroke:#181818;stroke-width:0.5;" x1="43.5" x2="245.6514" y1="576.6094" y2="576.6094"/><ellipse cx="53.5" cy="590.9141" fill="#000000" rx="3" ry="3" style="stroke:#000000;stroke-width:1;"/><text fill="#000000" font-family="sans-serif" font-size="14" lengthAdjust="spacing" textLength="84.0342" x="62.5" y="595.1426">Id : INT &#171;PK&#187;</text><line style="stroke:#181818;stroke-width:1;" x1="43.5" x2="245.6514" y1="602.2188" y2="602.2188"/><ellipse cx="53.5" cy="616.5234" fill="#000000" rx="3" ry="3" style="stroke:#000000;stroke-width:1;"/><text fill="#000000" font-family="sans-serif" font-size="14" lengthAdjust="spacing" textLength="166.5029" x="62.5" y="620.752">Extension : VARCHAR(10)</text><ellipse cx="53.5" cy="634.1328" fill="#000000" rx="3" ry="3" style="stroke:#000000;stroke-width:1;"/><text fill="#000000" font-family="sans-serif" font-size="14" lengthAdjust="spacing" textLength="178.1514" x="62.5" y="638.3613">MimeType : VARCHAR(100)</text><ellipse cx="53.5" cy="651.7422" fill="#000000" rx="3" ry="3" style="stroke:#000000;stroke-width:1;"/><text fill="#000000" font-family="sans-serif" font-size="14" lengthAdjust="spacing" textLength="161.8271" x="62.5" y="655.9707">Category : VARCHAR(20)</text><text fill="#000000" font-family="sans-serif" font-size="14" lengthAdjust="spacing" textLength="117.4756" x="62.5" y="673.5801">Description : TEXT</text></g><g id="elem_GMN12"><path d="M388,649 L388,773.4609 A0,0 0 0 0 388,773.4609 L495,773.4609 L499,808.13 L503,773.4609 L609.4526,773.4609 A0,0 0 0 0 609.4526,773.4609 L609.4526,659 L599.4526,649 L388,649 A0,0 0 0 0 388,649 " fill="#FEFFDD" style="stroke:#181818;stroke-width:0.5;"/><path d="M599.4526,649 L599.4526,659 L609.4526,659 L599.4526,649 " fill="#FEFFDD" style="stroke:#181818;stroke-width:0.5;"/><text fill="#000000" font-family="sans-serif" font-size="13" lengthAdjust="spacing" textLength="200.4526" x="394" y="667.4951">&#1054;&#1089;&#1085;&#1086;&#1074;&#1085;&#1072;&#1103; &#1089;&#1091;&#1097;&#1085;&#1086;&#1089;&#1090;&#1100; - &#1072;&#1091;&#1076;&#1080;&#1086;&#1092;&#1072;&#1081;&#1083;</text><ellipse cx="399.5" cy="679.2031" fill="#000000" rx="2.5" ry="2.5"/><text fill="#000000" font-family="sans-serif" font-size="13" lengthAdjust="spacing" textLength="126.6484" x="406" y="683.8467">- &#1086;&#1073;&#1103;&#1079;&#1072;&#1090;&#1077;&#1083;&#1100;&#1085;&#1099;&#1077; &#1087;&#1086;&#1083;&#1103;</text><text fill="#000000" font-family="sans-serif" font-size="13" lengthAdjust="spacing" textLength="128.5273" x="394" y="700.1982">PK - &#1087;&#1077;&#1088;&#1074;&#1080;&#1095;&#1085;&#1099;&#1081; &#1082;&#1083;&#1102;&#1095;</text><text fill="#000000" font-family="sans-serif" font-size="13" lengthAdjust="spacing" textLength="115.0195" x="394" y="716.5498">FK - &#1074;&#1085;&#1077;&#1096;&#1085;&#1080;&#1081; &#1082;&#1083;&#1102;&#1095;</text><text fill="#000000" font-family="sans-serif" font-size="13" lengthAdjust="spacing" textLength="101.5181" x="394" y="732.9014">artistId &#8594; Artist.Id</text><text fill="#000000" font-family="sans-serif" font-size="13" lengthAdjust="spacing" textLength="113.1152" x="394" y="749.2529">genreId &#8594; Genre.Id</text><text fill="#000000" font-family="sans-serif" font-size="13" lengthAdjust="spacing" textLength="199.8115" x="394" y="765.6045">FileExtensionId &#8594; FileExtension.Id</text></g><g id="elem_GMN15"><path d="M6,755.5 L6,814.5547 A0,0 0 0 0 6,814.5547 L141,814.5547 L145,849.77 L149,814.5547 L283.458,814.5547 A0,0 0 0 0 283.458,814.5547 L283.458,765.5 L273.458,755.5 L6,755.5 A0,0 0 0 0 6,755.5 " fill="#FEFFDD" style="stroke:#181818;stroke-width:0.5;"/><path d="M273.458,755.5 L273.458,765.5 L283.458,765.5 L273.458,755.5 " fill="#FEFFDD" style="stroke:#181818;stroke-width:0.5;"/><text fill="#000000" font-family="sans-serif" font-size="13" lengthAdjust="spacing" textLength="256.458" x="12" y="773.9951">&#1048;&#1089;&#1087;&#1086;&#1083;&#1085;&#1080;&#1090;&#1077;&#1083;&#1100; &#1084;&#1091;&#1079;&#1099;&#1082;&#1072;&#1083;&#1100;&#1085;&#1086;&#1075;&#1086; &#1087;&#1088;&#1086;&#1080;&#1079;&#1074;&#1077;&#1076;&#1077;&#1085;&#1080;&#1103;</text><text fill="#000000" font-family="sans-serif" font-size="13" lengthAdjust="spacing" textLength="218.0356" x="12" y="790.3467">&#1057;&#1074;&#1103;&#1079;&#1100;: &#1086;&#1076;&#1080;&#1085; Artist &#8594; &#1084;&#1085;&#1086;&#1075;&#1086; MusicFile</text><text fill="#000000" font-family="sans-serif" font-size="13" lengthAdjust="spacing" textLength="224.415" x="12" y="806.6982">Name - &#1091;&#1085;&#1080;&#1082;&#1072;&#1083;&#1100;&#1085;&#1086;&#1077; &#1080;&#1084;&#1103; &#1080;&#1089;&#1087;&#1086;&#1083;&#1085;&#1080;&#1090;&#1077;&#1083;&#1103;</text></g><g id="elem_GMN18"><path d="M21.5,1017.5 L21.5,1076.5547 A0,0 0 0 0 21.5,1076.5547 L141,1076.5547 L145,1111.72 L149,1076.5547 L267.0547,1076.5547 A0,0 0 0 0 267.0547,1076.5547 L267.0547,1027.5 L257.0547,1017.5 L21.5,1017.5 A0,0 0 0 0 21.5,1017.5 " fill="#FEFFDD" style="stroke:#181818;stroke-width:0.5;"/><path d="M257.0547,1017.5 L257.0547,1027.5 L267.0547,1027.5 L257.0547,1017.5 " fill="#FEFFDD" style="stroke:#181818;stroke-width:0.5;"/><text fill="#000000" font-family="sans-serif" font-size="13" lengthAdjust="spacing" textLength="117.6411" x="27.5" y="1035.9951">&#1052;&#1091;&#1079;&#1099;&#1082;&#1072;&#1083;&#1100;&#1085;&#1099;&#1081; &#1078;&#1072;&#1085;&#1088;</text><text fill="#000000" font-family="sans-serif" font-size="13" lengthAdjust="spacing" textLength="224.5547" x="27.5" y="1052.3467">&#1057;&#1074;&#1103;&#1079;&#1100;: &#1086;&#1076;&#1080;&#1085; Genre &#8594; &#1084;&#1085;&#1086;&#1075;&#1086; MusicFile</text><text fill="#000000" font-family="sans-serif" font-size="13" lengthAdjust="spacing" textLength="217.0518" x="27.5" y="1068.6982">Name - &#1091;&#1085;&#1080;&#1082;&#1072;&#1083;&#1100;&#1085;&#1086;&#1077; &#1085;&#1072;&#1079;&#1074;&#1072;&#1085;&#1080;&#1077; &#1078;&#1072;&#1085;&#1088;&#1072;</text></g><g id="elem_GMN21"><path d="M740,566.5 L740,641.9063 A0,0 0 0 0 740,641.9063 L867,641.9063 L871,676.7 L875,641.9063 L1000.7129,641.9063 A0,0 0 0 0 1000.7129,641.9063 L1000.7129,576.5 L990.7129,566.5 L740,566.5 A0,0 0 0 0 740,566.5 " fill="#FEFFDD" style="stroke:#181818;stroke-width:0.5;"/><path d="M990.7129,566.5 L990.7129,576.5 L1000.7129,576.5 L990.7129,566.5 " fill="#FEFFDD" style="stroke:#181818;stroke-width:0.5;"/><text fill="#000000" font-family="sans-serif" font-size="13" lengthAdjust="spacing" textLength="239.2241" x="746" y="584.9951">&#1044;&#1086;&#1087;&#1086;&#1083;&#1085;&#1080;&#1090;&#1077;&#1083;&#1100;&#1085;&#1099;&#1077; &#1092;&#1072;&#1081;&#1083;&#1099; (&#1085;&#1086;&#1090;&#1099;, &#1090;&#1077;&#1082;&#1089;&#1090;&#1099;)</text><text fill="#000000" font-family="sans-serif" font-size="13" lengthAdjust="spacing" textLength="196.5552" x="746" y="601.3467">FK - &#1074;&#1085;&#1077;&#1096;&#1085;&#1080;&#1081; &#1082;&#1083;&#1102;&#1095; &#1082; MusicFile.id</text><text fill="#000000" font-family="sans-serif" font-size="13" lengthAdjust="spacing" textLength="226.9287" x="746" y="617.6982">FK2 - &#1074;&#1085;&#1077;&#1096;&#1085;&#1080;&#1081; &#1082;&#1083;&#1102;&#1095; &#1082; FileExtension.id</text><text fill="#000000" font-family="sans-serif" font-size="13" lengthAdjust="spacing" textLength="239.7129" x="746" y="634.0498">&#1057;&#1074;&#1103;&#1079;&#1100;: &#1086;&#1076;&#1080;&#1085; MusicFile &#8594; &#1084;&#1085;&#1086;&#1075;&#1086; ExtraFile</text></g><g id="elem_GMN24"><path d="M18.5,438.5 L18.5,513.9063 A0,0 0 0 0 18.5,513.9063 L141,513.9063 L145,548.97 L149,513.9063 L270.4595,513.9063 A0,0 0 0 0 270.4595,513.9063 L270.4595,448.5 L260.4595,438.5 L18.5,438.5 A0,0 0 0 0 18.5,438.5 " fill="#FEFFDD" style="stroke:#181818;stroke-width:0.5;"/><path d="M260.4595,438.5 L260.4595,448.5 L270.4595,448.5 L260.4595,438.5 " fill="#FEFFDD" style="stroke:#181818;stroke-width:0.5;"/><text fill="#000000" font-family="sans-serif" font-size="13" lengthAdjust="spacing" textLength="200.8716" x="24.5" y="456.9951">&#1057;&#1087;&#1088;&#1072;&#1074;&#1086;&#1095;&#1085;&#1080;&#1082; &#1088;&#1072;&#1089;&#1096;&#1080;&#1088;&#1077;&#1085;&#1080;&#1081; &#1092;&#1072;&#1081;&#1083;&#1086;&#1074;</text><text fill="#000000" font-family="sans-serif" font-size="13" lengthAdjust="spacing" textLength="177.9946" x="24.5" y="473.3467">Extension: ".mp3", ".jpg", ".pdf"</text><text fill="#000000" font-family="sans-serif" font-size="13" lengthAdjust="spacing" textLength="225.1196" x="24.5" y="489.6982">MimeType: "audio/mpeg", "image/jpeg"</text><text fill="#000000" font-family="sans-serif" font-size="13" lengthAdjust="spacing" textLength="230.9595" x="24.5" y="506.0498">&#1054;&#1076;&#1080;&#1085; &#1082;&#1086; &#1084;&#1085;&#1086;&#1075;&#1080;&#1084; &#1089; MusicFile &#1080; ExtraFile</text></g><!--link Artist to MusicFile--><g id="link_Artist_MusicFile"><path codeLine="69" d="M246.9,916 C278.85,916 289.43,916 324.86,916 " fill="#FFFFFF" fill-opacity="0.00000" id="Artist-MusicFile" style="stroke:#181818;stroke-width:1;"/><line style="stroke:#181818;stroke-width:1;" x1="242.9" x2="242.9" y1="920" y2="912"/><line style="stroke:#181818;stroke-width:1;" x1="245.9" x2="245.9" y1="920" y2="912"/><line style="stroke:#181818;stroke-width:1;" x1="246.9" x2="238.9" y1="916" y2="916"/><line style="stroke:#181818;stroke-width:1;" x1="334.86" x2="342.86" y1="916" y2="910"/><line style="stroke:#181818;stroke-width:1;" x1="334.86" x2="342.86" y1="916" y2="922"/><line style="stroke:#181818;stroke-width:1;" x1="334.86" x2="342.86" y1="916" y2="916"/><ellipse cx="328.86" cy="916" fill="#FFFFFF" fill-opacity="0.00000" rx="4" ry="4" style="stroke:#181818;stroke-width:1;"/><text fill="#000000" font-family="sans-serif" font-size="13" lengthAdjust="spacing" textLength="63.0195" x="226.88" y="930.4951">&#1080;&#1089;&#1087;&#1086;&#1083;&#1085;&#1103;&#1077;&#1090;</text></g><!--link Genre to MusicFile--><g id="link_Genre_MusicFile"><path codeLine="70" d="M240.58,1160 C345.57,1160 499,1160 499,1160 C499,1160 499,1132.01 499,1081.7 " fill="#FFFFFF" fill-opacity="0.00000" id="Genre-MusicFile" style="stroke:#181818;stroke-width:1;"/><line style="stroke:#181818;stroke-width:1;" x1="236.58" x2="236.58" y1="1164" y2="1156"/><line style="stroke:#181818;stroke-width:1;" x1="239.58" x2="239.58" y1="1164" y2="1156"/><line style="stroke:#181818;stroke-width:1;" x1="240.58" x2="232.58" y1="1160" y2="1160"/><line style="stroke:#181818;stroke-width:1;" x1="499" x2="493" y1="1071.7" y2="1063.7"/><line style="stroke:#181818;stroke-width:1;" x1="499" x2="505" y1="1071.7" y2="1063.7"/><line style="stroke:#181818;stroke-width:1;" x1="499" x2="499" y1="1071.7" y2="1063.7"/><ellipse cx="499" cy="1077.7" fill="#FFFFFF" fill-opacity="0.00000" rx="4" ry="4" style="stroke:#181818;stroke-width:1;"/><text fill="#000000" font-family="sans-serif" font-size="13" lengthAdjust="spacing" textLength="70.1479" x="342.94" y="1174.4951">&#1086;&#1090;&#1085;&#1086;&#1089;&#1080;&#1090;&#1089;&#1103; &#1082;</text></g><!--link MusicFile to ExtraFile--><g id="link_MusicFile_ExtraFile"><path codeLine="71" d="M662.11,852.75 C681.82,852.75 676,852.75 695.72,852.75 " fill="#FFFFFF" fill-opacity="0.00000" id="MusicFile-ExtraFile" style="stroke:#181818;stroke-width:1;"/><line style="stroke:#181818;stroke-width:1;" x1="658.11" x2="658.11" y1="856.75" y2="848.75"/><line style="stroke:#181818;stroke-width:1;" x1="661.11" x2="661.11" y1="856.75" y2="848.75"/><line style="stroke:#181818;stroke-width:1;" x1="662.11" x2="654.11" y1="852.75" y2="852.75"/><line style="stroke:#181818;stroke-width:1;" x1="705.72" x2="713.72" y1="852.75" y2="846.75"/><line style="stroke:#181818;stroke-width:1;" x1="705.72" x2="713.72" y1="852.75" y2="858.75"/><line style="stroke:#181818;stroke-width:1;" x1="705.72" x2="713.72" y1="852.75" y2="852.75"/><ellipse cx="699.72" cy="852.75" fill="#FFFFFF" fill-opacity="0.00000" rx="4" ry="4" style="stroke:#181818;stroke-width:1;"/><text fill="#000000" font-family="sans-serif" font-size="13" lengthAdjust="spacing" textLength="36.6133" x="646.92" y="867.2451">&#1080;&#1084;&#1077;&#1077;&#1090;</text></g><!--link FileExtension to MusicFile--><g id="link_FileExtension_MusicFile"><path codeLine="72" d="M254.82,665 C312.86,665 366,665 366,665 C366,665 366,720.15 366,790.44 " fill="#FFFFFF" fill-opacity="0.00000" id="FileExtension-MusicFile" style="stroke:#181818;stroke-width:1;"/><line style="stroke:#181818;stroke-width:1;" x1="250.82" x2="250.82" y1="669" y2="661"/><line style="stroke:#181818;stroke-width:1;" x1="253.82" x2="253.82" y1="669" y2="661"/><line style="stroke:#181818;stroke-width:1;" x1="254.82" x2="246.82" y1="665" y2="665"/><line style="stroke:#181818;stroke-width:1;" x1="366" x2="372" y1="800.44" y2="808.44"/><line style="stroke:#181818;stroke-width:1;" x1="366" x2="360" y1="800.44" y2="808.44"/><line style="stroke:#181818;stroke-width:1;" x1="366" x2="366" y1="800.44" y2="808.44"/><ellipse cx="366" cy="794.44" fill="#FFFFFF" fill-opacity="0.00000" rx="4" ry="4" style="stroke:#181818;stroke-width:1;"/><text fill="#000000" font-family="sans-serif" font-size="13" lengthAdjust="spacing" textLength="92.0918" x="273" y="691.6251">&#1080;&#1089;&#1087;&#1086;&#1083;&#1100;&#1079;&#1091;&#1077;&#1090;&#1089;&#1103; &#1074;</text></g><!--link FileExtension to ExtraFile--><g id="link_FileExtension_ExtraFile"><path codeLine="73" d="M254.63,645.25 C421.69,645.25 727,645.25 727,645.25 C727,645.25 727,640.41 727,658.71 " fill="#FFFFFF" fill-opacity="0.00000" id="FileExtension-ExtraFile" style="stroke:#181818;stroke-width:1;"/><line style="stroke:#181818;stroke-width:1;" x1="250.63" x2="250.63" y1="649.25" y2="641.25"/><line style="stroke:#181818;stroke-width:1;" x1="253.63" x2="253.63" y1="649.25" y2="641.25"/><line style="stroke:#181818;stroke-width:1;" x1="254.63" x2="246.63" y1="645.25" y2="645.25"/><line style="stroke:#181818;stroke-width:1;" x1="727" x2="733" y1="668.71" y2="676.71"/><line style="stroke:#181818;stroke-width:1;" x1="727" x2="721" y1="668.71" y2="676.71"/><line style="stroke:#181818;stroke-width:1;" x1="727" x2="727" y1="668.71" y2="676.71"/><ellipse cx="727" cy="662.71" fill="#FFFFFF" fill-opacity="0.00000" rx="4" ry="4" style="stroke:#181818;stroke-width:1;"/><text fill="#000000" font-family="sans-serif" font-size="13" lengthAdjust="spacing" textLength="92.0918" x="409.54" y="641.7451">&#1080;&#1089;&#1087;&#1086;&#1083;&#1100;&#1079;&#1091;&#1077;&#1090;&#1089;&#1103; &#1074;</text></g><!--link AR1 to MF1--><g id="link_AR1_MF1"><path codeLine="164" d="M145,139.15 C145,149.42 145,157.25 145,157.25 C145,157.25 318.16,157.25 421.39,157.25 " fill="#FFFFFF" fill-opacity="0.00000" id="AR1-to-MF1" style="stroke:#181818;stroke-width:1;"/><polygon fill="#181818" points="427.39,157.25,418.39,153.25,422.39,157.25,418.39,161.25,427.39,157.25" style="stroke:#181818;stroke-width:1;"/><text fill="#000000" font-family="sans-serif" font-size="13" lengthAdjust="spacing" textLength="63.0195" x="213.14" y="171.7451">&#1080;&#1089;&#1087;&#1086;&#1083;&#1085;&#1103;&#1077;&#1090;</text></g><!--link GR1 to MF1--><g id="link_GR1_MF1"><path codeLine="165" d="M208.2,214 C269.91,214 357.31,214 421.41,214 " fill="#FFFFFF" fill-opacity="0.00000" id="GR1-to-MF1" style="stroke:#181818;stroke-width:1;"/><polygon fill="#181818" points="427.41,214,418.41,210,422.41,214,418.41,218,427.41,214" style="stroke:#181818;stroke-width:1;"/><text fill="#000000" font-family="sans-serif" font-size="13" lengthAdjust="spacing" textLength="70.1479" x="246.8" y="228.4951">&#1086;&#1090;&#1085;&#1086;&#1089;&#1080;&#1090;&#1089;&#1103; &#1082;</text></g><!--link FE1 to MF1--><g id="link_FE1_MF1"><path codeLine="166" d="M199.67,346 C284.18,346 436,346 436,346 C436,346 436,302.2 436,260.18 " fill="#FFFFFF" fill-opacity="0.00000" id="FE1-to-MF1" style="stroke:#181818;stroke-width:1;"/><polygon fill="#181818" points="436,254.18,432,263.18,436,259.18,440,263.18,436,254.18" style="stroke:#181818;stroke-width:1;"/><text fill="#000000" font-family="sans-serif" font-size="13" lengthAdjust="spacing" textLength="107.396" x="255.75" y="360.4951">&#1080;&#1089;&#1087;&#1086;&#1083;&#1100;&#1079;&#1091;&#1077;&#1090;&#1089;&#1103; &#1076;&#1083;&#1103;</text></g><!--link MF1 to EF1--><g id="link_MF1_EF1"><path codeLine="167" d="M569.79,239 C633.18,239 719.75,239 785.41,239 " fill="#FFFFFF" fill-opacity="0.00000" id="MF1-to-EF1" style="stroke:#181818;stroke-width:1;"/><polygon fill="#181818" points="791.41,239,782.41,235,786.41,239,782.41,243,791.41,239" style="stroke:#181818;stroke-width:1;"/><text fill="#000000" font-family="sans-serif" font-size="13" lengthAdjust="spacing" textLength="57.6875" x="622.6" y="253.4951">&#1089;&#1086;&#1076;&#1077;&#1088;&#1078;&#1080;&#1090;</text></g><!--link FE2 to EF1--><g id="link_FE2_EF1"><path codeLine="168" d="M553.79,304.5 C616.74,304.5 714.07,304.5 785.5,304.5 " fill="#FFFFFF" fill-opacity="0.00000" id="FE2-to-EF1" style="stroke:#181818;stroke-width:1;"/><polygon fill="#181818" points="791.5,304.5,782.5,300.5,786.5,304.5,782.5,308.5,791.5,304.5" style="stroke:#181818;stroke-width:1;"/><text fill="#000000" font-family="sans-serif" font-size="13" lengthAdjust="spacing" textLength="107.396" x="564.64" y="318.9951">&#1080;&#1089;&#1087;&#1086;&#1083;&#1100;&#1079;&#1091;&#1077;&#1090;&#1089;&#1103; &#1076;&#1083;&#1103;</text></g><!--SRC=[dLVRRjj647tdLmpKXzX1v5jG53K20x8jEu9hMvMLzFB6Yck9iKGI50LKJGBuqjOjR5HeqOS-j0do1whhkspv5vQ_q2_fp2mfaZ9bftcHkBF3kPmvExDy0F8lsVLt_5r_M_RbXRoKvo3x_Yuk_aPHLvxA4tajp_sELZCD0HNJhTI5rjmoBKTtzGRKJKjuRKU0xNerExRXw9KjlIesl7PTW2igdcvLySswsFJ0iy4rgpKF39DsJDlIj0SWt_WxwAilZ_2twtS0uzhpVoOHHtWu2_BAtvDd_W76sPKz_r1Uu_C5-D_ZyaBsD65vfjU6rLRJh2oPwFYb1l0GJ0DceR1MXYTFYYjpSoZBPdbZ4tKilI5mkvp_iZoGERfNYylGQZsXfBkUsVGAaTqbPLUlVzDgn1MhmdB5RRssq5qb6_Xicj-HY_d2SYWrMgvEu2Z5VEbvxZEMjvowhHkBkiSX5LRp6-NSQX6-A9IVyXA-Nb_BioPXaF_M4rOJpGn7yPf1VvV46B3ME_86gz3ZkkzY_NjO_G3P7ESTm5eO1UkQWlHvhhJmD5SQcvcQ6aVvl6b7o2pOBSjpsp6jQQMrPBiDONmLuJCYp5Ci-JLHD0njcP3-dv45FXT5i-AQJe0rHpZ2wp42CmmEiz3_OS12Od0O58BlwZ4cZWni7G-4QUbrqbqROkI6Pxl2IDiXMN68god9XAfbEgWHwqYqSOjrpzwRNODZTflV7qAzMQ1oulDF2Erss7TIOKqOlm_QI35U-76LWja8KHdYn4DOG0YgTeAZCtVJvOsyuS2FYHSg0Nc2RKmU-HrvXe8BBJX0hrvbi_RBMAEQXKpyvA7-YR-RqHIfKxMfIpDsH4H4hGFoCgD5Ei5B4GFPXRp2CDXq4iEx0qAEds7dFGaT7OruVSZP7QyJN6yHB0x8twV3pDMc-OFl-1sU1U7iiMnaesSxO6z68M8bxXqPa0MKxs55pb4KZWcgBcxGZAEwTEC76GiM1Dr1lU8AATvWYDleunm3LHC71r3F_yNVfuR5AXJ02JANIfxO7aoAVt_yBMYV4mK3DyB9G78kin8FdnlQJiX8JLW642PQ0XbbdM3v8wM77wPCJrJvH_Q1QTl7oCym3qLVXJkQUgV8ozEtppXUXrE0GiFoXLRYXU56bGNqHu34_I6yM7Ekz8X1avOQ0qJX_9bw0GYdmQY0rJ7wq7YHMenCDpZGYTcJ5ktW650yluyQ6TGQ0aRw1p36fDtr3nu1ArqoWG_6xs4OFaI9J9ZCe9MPk_MJTE9tKb6Bci4GSb5-wVad72ZhDtoRFC8KznN4ASq-TfFZPWzHwyPsCj5m7cSUuVyBfyh_Zh6PGPsmXQEAtZ9CUxBX25Om6tZ_d7n1AsuLGLQ8H3zA1hc8JIEMAZQWjFImNVtAOLsIEgUZMXUbTKLTwvZvmLS1BRZyOW-CUjnsGYN3KoiOPvdWG7qqdG6z2RdIDEy2VDuImk8ddcK0prRuR_hJJwRmuJKjOcOKpGChomCh9Rko5JUoKDURc2wuA5TjAB0LCvLixu79fNneaeeHDnaX7otvQRNu67B1wcuNCu6BcT05rZVXmd7gPeKln9FXbc5NMWsqnulYuX8iHWBs5dCNbJZ8PdKfp6RUhec6gLjGgkbEqpRQSRzH3NAmnbyjEdx1r0IiEyBLmt9y7EMNI3AQY87N_C0hVdhnWITUzDH5f-zly-6_GSuGLVhnG1oCq1wWib4JmkESO8nl9IfVTH5vIqJbhjNbAJYuWfodirSZocMpSup9BDo-YMZBIOMqouT6z4WpCZp-ELsDj4WxpzgeIss78ZebcneH8Tg-pzX_]--></g></svg>