<svg xmlns="http://www.w3.org/2000/svg" xmlns:xlink="http://www.w3.org/1999/xlink" contentStyleType="text/css" data-diagram-type="CLASS" height="935px" preserveAspectRatio="none" style="width:1009px;height:935px;background:#FFFFFF;" version="1.1" viewBox="0 0 1009 935" width="1009px" zoomAndPan="magnify"><defs/><g><!--cluster ?????? ??????--><g id="cluster_&#1055;&#1088;&#1080;&#1084;&#1077;&#1088; &#1076;&#1072;&#1085;&#1085;&#1099;&#1093;"><rect fill="#FFFFFF" fill-opacity="0.00000" height="464" rx="2.5" ry="2.5" style="stroke:#000000;stroke-width:1.5;" width="879.5" x="61" y="7"/><text fill="#000000" font-family="sans-serif" font-size="14" font-weight="bold" lengthAdjust="spacing" textLength="111.1318" x="445.1841" y="23.5332">&#1055;&#1088;&#1080;&#1084;&#1077;&#1088; &#1076;&#1072;&#1085;&#1085;&#1099;&#1093;</text></g><!--class FE1--><g id="elem_FE1"><rect codeLine="79" fill="#F1F1F1" height="114.0469" id="FE1" rx="2.5" ry="2.5" style="stroke:#181818;stroke-width:0.5;" width="109.5029" x="77" y="192"/><text fill="#000000" font-family="sans-serif" font-size="14" lengthAdjust="spacing" textLength="103.5029" x="80" y="211.5332">FileExtension #1</text><line style="stroke:#181818;stroke-width:0.5;" x1="78" x2="185.5029" y1="219.6094" y2="219.6094"/><text fill="#000000" font-family="sans-serif" font-size="14" lengthAdjust="spacing" textLength="31.124" x="83" y="238.1426">.mp3</text><line style="stroke:#181818;stroke-width:1;" x1="78" x2="185.5029" y1="245.2188" y2="245.2188"/><text fill="#000000" font-family="sans-serif" font-size="14" lengthAdjust="spacing" textLength="73.165" x="83" y="263.752">audio/mpeg</text><text fill="#000000" font-family="sans-serif" font-size="14" lengthAdjust="spacing" textLength="34.2549" x="83" y="281.3613">audio</text><text fill="#000000" font-family="sans-serif" font-size="14" lengthAdjust="spacing" textLength="68.4824" x="83" y="298.9707">MP3 Audio</text></g><!--class FE2--><g id="elem_FE2"><rect codeLine="87" fill="#F1F1F1" height="114.0469" id="FE2" rx="2.5" ry="2.5" style="stroke:#181818;stroke-width:0.5;" width="109.5029" x="418.5" y="43"/><text fill="#000000" font-family="sans-serif" font-size="14" lengthAdjust="spacing" textLength="103.5029" x="421.5" y="62.5332">FileExtension #2</text><line style="stroke:#181818;stroke-width:0.5;" x1="419.5" x2="527.0029" y1="70.6094" y2="70.6094"/><text fill="#000000" font-family="sans-serif" font-size="14" lengthAdjust="spacing" textLength="23.3516" x="424.5" y="89.1426">.pdf</text><line style="stroke:#181818;stroke-width:1;" x1="419.5" x2="527.0029" y1="96.2188" y2="96.2188"/><text fill="#000000" font-family="sans-serif" font-size="14" lengthAdjust="spacing" textLength="90.2891" x="424.5" y="114.752">application/pdf</text><text fill="#000000" font-family="sans-serif" font-size="14" lengthAdjust="spacing" textLength="61.4824" x="424.5" y="132.3613">document</text><text fill="#000000" font-family="sans-serif" font-size="14" lengthAdjust="spacing" textLength="95.6963" x="424.5" y="149.9707">PDF Document</text></g><!--class FE3--><g id="elem_FE3"><rect codeLine="95" fill="#F1F1F1" height="114.0469" id="FE3" rx="2.5" ry="2.5" style="stroke:#181818;stroke-width:0.5;" width="109.5029" x="418.5" y="341"/><text fill="#000000" font-family="sans-serif" font-size="14" lengthAdjust="spacing" textLength="103.5029" x="421.5" y="360.5332">FileExtension #3</text><line style="stroke:#181818;stroke-width:0.5;" x1="419.5" x2="527.0029" y1="368.6094" y2="368.6094"/><text fill="#000000" font-family="sans-serif" font-size="14" lengthAdjust="spacing" textLength="22.5723" x="424.5" y="387.1426">.jpg</text><line style="stroke:#181818;stroke-width:1;" x1="419.5" x2="527.0029" y1="394.2188" y2="394.2188"/><text fill="#000000" font-family="sans-serif" font-size="14" lengthAdjust="spacing" textLength="68.4893" x="424.5" y="412.752">image/jpeg</text><text fill="#000000" font-family="sans-serif" font-size="14" lengthAdjust="spacing" textLength="38.1309" x="424.5" y="430.3613">image</text><text fill="#000000" font-family="sans-serif" font-size="14" lengthAdjust="spacing" textLength="79.3652" x="424.5" y="447.9707">JPEG Image</text></g><!--class MF1--><g id="elem_MF1"><rect codeLine="103" fill="#F1F1F1" height="114.0469" id="MF1" rx="2.5" ry="2.5" style="stroke:#181818;stroke-width:0.5;" width="141.9717" x="402.5" y="192"/><text fill="#000000" font-family="sans-serif" font-size="14" lengthAdjust="spacing" textLength="78.5791" x="434.1963" y="211.5332">MusicFile #1</text><line style="stroke:#181818;stroke-width:0.5;" x1="403.5" x2="543.4717" y1="219.6094" y2="219.6094"/><text fill="#000000" font-family="sans-serif" font-size="14" lengthAdjust="spacing" textLength="129.9717" x="408.5" y="238.1426">Bohemian Rhapsody</text><line style="stroke:#181818;stroke-width:1;" x1="403.5" x2="543.4717" y1="245.2188" y2="245.2188"/><text fill="#000000" font-family="sans-serif" font-size="14" lengthAdjust="spacing" textLength="42.0342" x="408.5" y="263.752">Queen</text><text fill="#000000" font-family="sans-serif" font-size="14" lengthAdjust="spacing" textLength="127.627" x="408.5" y="281.3613">A Night at the Opera</text><text fill="#000000" font-family="sans-serif" font-size="14" lengthAdjust="spacing" textLength="31.1445" x="408.5" y="298.9707">1975</text></g><!--class EF1--><g id="elem_EF1"><rect codeLine="111" fill="#F1F1F1" height="96.4375" id="EF1" rx="2.5" ry="2.5" style="stroke:#181818;stroke-width:0.5;" width="158.0635" x="766.5" y="127"/><text fill="#000000" font-family="sans-serif" font-size="14" lengthAdjust="spacing" textLength="74.6963" x="808.1836" y="146.5332">ExtraFile #1</text><line style="stroke:#181818;stroke-width:0.5;" x1="767.5" x2="923.5635" y1="154.6094" y2="154.6094"/><text fill="#000000" font-family="sans-serif" font-size="14" lengthAdjust="spacing" textLength="146.0635" x="772.5" y="173.1426">&#1053;&#1086;&#1090;&#1099; &#1076;&#1083;&#1103; &#1092;&#1086;&#1088;&#1090;&#1077;&#1087;&#1080;&#1072;&#1085;&#1086;</text><line style="stroke:#181818;stroke-width:1;" x1="767.5" x2="923.5635" y1="180.2188" y2="180.2188"/><text fill="#000000" font-family="sans-serif" font-size="14" lengthAdjust="spacing" textLength="57.6064" x="772.5" y="198.752">piano.pdf</text><text fill="#000000" font-family="sans-serif" font-size="14" lengthAdjust="spacing" textLength="94.1445" x="772.5" y="216.3613">SheetMusic (0)</text></g><!--class EF2--><g id="elem_EF2"><rect codeLine="118" fill="#F1F1F1" height="96.4375" id="EF2" rx="2.5" ry="2.5" style="stroke:#181818;stroke-width:0.5;" width="89.6836" x="800.5" y="304"/><text fill="#000000" font-family="sans-serif" font-size="14" lengthAdjust="spacing" textLength="74.6963" x="807.9937" y="323.5332">ExtraFile #2</text><line style="stroke:#181818;stroke-width:0.5;" x1="801.5" x2="889.1836" y1="331.6094" y2="331.6094"/><text fill="#000000" font-family="sans-serif" font-size="14" lengthAdjust="spacing" textLength="77.6836" x="806.5" y="350.1426">&#1058;&#1077;&#1082;&#1089;&#1090; &#1087;&#1077;&#1089;&#1085;&#1080;</text><line style="stroke:#181818;stroke-width:1;" x1="801.5" x2="889.1836" y1="357.2188" y2="357.2188"/><text fill="#000000" font-family="sans-serif" font-size="14" lengthAdjust="spacing" textLength="50.5518" x="806.5" y="375.752">lyrics.txt</text><text fill="#000000" font-family="sans-serif" font-size="14" lengthAdjust="spacing" textLength="57.5586" x="806.5" y="393.3613">Lyrics (2)</text></g><!--class MusicFile--><g id="elem_MusicFile"><rect codeLine="9" fill="#F1F1F1" height="254.9219" id="MusicFile" rx="2.5" ry="2.5" style="stroke:#181818;stroke-width:0.5;" width="310.7168" x="318" y="600.5"/><text fill="#000000" font-family="sans-serif" font-size="14" lengthAdjust="spacing" textLength="59.1172" x="443.7998" y="620.0332">MusicFile</text><line style="stroke:#181818;stroke-width:0.5;" x1="319" x2="627.7168" y1="628.1094" y2="628.1094"/><ellipse cx="329" cy="642.4141" fill="#000000" rx="3" ry="3" style="stroke:#000000;stroke-width:1;"/><text fill="#000000" font-family="sans-serif" font-size="14" lengthAdjust="spacing" textLength="83.2549" x="338" y="646.6426">id : INT &#171;PK&#187;</text><line style="stroke:#181818;stroke-width:1;" x1="319" x2="627.7168" y1="653.7188" y2="653.7188"/><ellipse cx="329" cy="668.0234" fill="#000000" rx="3" ry="3" style="stroke:#000000;stroke-width:1;"/><text fill="#000000" font-family="sans-serif" font-size="14" lengthAdjust="spacing" textLength="100.3652" x="338" y="672.252">filename : TEXT</text><ellipse cx="329" cy="685.6328" fill="#000000" rx="3" ry="3" style="stroke:#000000;stroke-width:1;"/><text fill="#000000" font-family="sans-serif" font-size="14" lengthAdjust="spacing" textLength="92.5928" x="338" y="689.8613">filepath : TEXT</text><ellipse cx="329" cy="703.2422" fill="#000000" rx="3" ry="3" style="stroke:#000000;stroke-width:1;"/><text fill="#000000" font-family="sans-serif" font-size="14" lengthAdjust="spacing" textLength="69.2344" x="338" y="707.4707">title : TEXT</text><ellipse cx="329" cy="720.8516" fill="#000000" rx="3" ry="3" style="stroke:#000000;stroke-width:1;"/><text fill="#000000" font-family="sans-serif" font-size="14" lengthAdjust="spacing" textLength="77.7861" x="338" y="725.0801">artist : TEXT</text><text fill="#000000" font-family="sans-serif" font-size="14" lengthAdjust="spacing" textLength="85.5791" x="338" y="742.6895">album : TEXT</text><text fill="#000000" font-family="sans-serif" font-size="14" lengthAdjust="spacing" textLength="61.4551" x="338" y="760.2988">year : INT</text><text fill="#000000" font-family="sans-serif" font-size="14" lengthAdjust="spacing" textLength="83.2549" x="338" y="777.9082">genre : TEXT</text><ellipse cx="329" cy="791.2891" fill="#000000" rx="3" ry="3" style="stroke:#000000;stroke-width:1;"/><text fill="#000000" font-family="sans-serif" font-size="14" lengthAdjust="spacing" textLength="101.1309" x="338" y="795.5176">filesize : BIGINT</text><ellipse cx="329" cy="808.8984" fill="#000000" rx="3" ry="3" style="stroke:#000000;stroke-width:1;"/><text fill="#000000" font-family="sans-serif" font-size="14" lengthAdjust="spacing" textLength="130.7236" x="338" y="813.127">duration : INTERVAL</text><ellipse cx="329" cy="826.5078" fill="#000000" rx="3" ry="3" style="stroke:#000000;stroke-width:1;"/><text fill="#000000" font-family="sans-serif" font-size="14" lengthAdjust="spacing" textLength="284.7168" x="338" y="830.7363">uploadDate : TIMESTAMP WITH TIME ZONE</text><ellipse cx="329" cy="844.1172" fill="#000000" rx="3" ry="3" style="stroke:#000000;stroke-width:1;"/><text fill="#000000" font-family="sans-serif" font-size="14" lengthAdjust="spacing" textLength="167.2891" x="338" y="848.3457">FileExtensionId : INT &#171;FK&#187;</text></g><!--class ExtraFile--><g id="elem_ExtraFile"><rect codeLine="26" fill="#F1F1F1" height="219.7031" id="ExtraFile" rx="2.5" ry="2.5" style="stroke:#181818;stroke-width:0.5;" width="313.041" x="689" y="709"/><text fill="#000000" font-family="sans-serif" font-size="14" lengthAdjust="spacing" textLength="55.2344" x="817.9033" y="728.5332">ExtraFile</text><line style="stroke:#181818;stroke-width:0.5;" x1="690" x2="1001.041" y1="736.6094" y2="736.6094"/><ellipse cx="700" cy="750.9141" fill="#000000" rx="3" ry="3" style="stroke:#000000;stroke-width:1;"/><text fill="#000000" font-family="sans-serif" font-size="14" lengthAdjust="spacing" textLength="84.0342" x="709" y="755.1426">Id : INT &#171;PK&#187;</text><line style="stroke:#181818;stroke-width:1;" x1="690" x2="1001.041" y1="762.2188" y2="762.2188"/><ellipse cx="700" cy="776.5234" fill="#000000" rx="3" ry="3" style="stroke:#000000;stroke-width:1;"/><text fill="#000000" font-family="sans-serif" font-size="14" lengthAdjust="spacing" textLength="155.5928" x="709" y="780.752">OriginalFileName : TEXT</text><ellipse cx="700" cy="794.1328" fill="#000000" rx="3" ry="3" style="stroke:#000000;stroke-width:1;"/><text fill="#000000" font-family="sans-serif" font-size="14" lengthAdjust="spacing" textLength="148.5996" x="709" y="798.3613">StoredFileName : TEXT</text><ellipse cx="700" cy="811.7422" fill="#000000" rx="3" ry="3" style="stroke:#000000;stroke-width:1;"/><text fill="#000000" font-family="sans-serif" font-size="14" lengthAdjust="spacing" textLength="98.8066" x="709" y="815.9707">FilePath : TEXT</text><ellipse cx="700" cy="829.3516" fill="#000000" rx="3" ry="3" style="stroke:#000000;stroke-width:1;"/><text fill="#000000" font-family="sans-serif" font-size="14" lengthAdjust="spacing" textLength="117.4756" x="709" y="833.5801">Description : TEXT</text><ellipse cx="700" cy="846.9609" fill="#000000" rx="3" ry="3" style="stroke:#000000;stroke-width:1;"/><text fill="#000000" font-family="sans-serif" font-size="14" lengthAdjust="spacing" textLength="87.9033" x="709" y="851.1895">FileType : INT</text><ellipse cx="700" cy="864.5703" fill="#000000" rx="3" ry="3" style="stroke:#000000;stroke-width:1;"/><text fill="#000000" font-family="sans-serif" font-size="14" lengthAdjust="spacing" textLength="108.1309" x="709" y="868.7988">FileSize : BIGINT</text><ellipse cx="700" cy="882.1797" fill="#000000" rx="3" ry="3" style="stroke:#000000;stroke-width:1;"/><text fill="#000000" font-family="sans-serif" font-size="14" lengthAdjust="spacing" textLength="287.041" x="709" y="886.4082">UploadDate : TIMESTAMP WITH TIME ZONE</text><ellipse cx="700" cy="899.7891" fill="#000000" rx="3" ry="3" style="stroke:#000000;stroke-width:1;"/><text fill="#000000" font-family="sans-serif" font-size="14" lengthAdjust="spacing" textLength="142.3652" x="709" y="904.0176">MusicFileId : INT &#171;FK&#187;</text><ellipse cx="700" cy="917.3984" fill="#000000" rx="3" ry="3" style="stroke:#000000;stroke-width:1;"/><text fill="#000000" font-family="sans-serif" font-size="14" lengthAdjust="spacing" textLength="167.2891" x="709" y="921.627">FileExtensionId : INT &#171;FK&#187;</text></g><!--class FileExtension--><g id="elem_FileExtension"><rect codeLine="41" fill="#F1F1F1" height="131.6563" id="FileExtension" rx="2.5" ry="2.5" style="stroke:#181818;stroke-width:0.5;" width="204.1514" x="30" y="753"/><text fill="#000000" font-family="sans-serif" font-size="14" lengthAdjust="spacing" textLength="84.041" x="90.0552" y="772.5332">FileExtension</text><line style="stroke:#181818;stroke-width:0.5;" x1="31" x2="233.1514" y1="780.6094" y2="780.6094"/><ellipse cx="41" cy="794.9141" fill="#000000" rx="3" ry="3" style="stroke:#000000;stroke-width:1;"/><text fill="#000000" font-family="sans-serif" font-size="14" lengthAdjust="spacing" textLength="84.0342" x="50" y="799.1426">Id : INT &#171;PK&#187;</text><line style="stroke:#181818;stroke-width:1;" x1="31" x2="233.1514" y1="806.2188" y2="806.2188"/><ellipse cx="41" cy="820.5234" fill="#000000" rx="3" ry="3" style="stroke:#000000;stroke-width:1;"/><text fill="#000000" font-family="sans-serif" font-size="14" lengthAdjust="spacing" textLength="166.5029" x="50" y="824.752">Extension : VARCHAR(10)</text><ellipse cx="41" cy="838.1328" fill="#000000" rx="3" ry="3" style="stroke:#000000;stroke-width:1;"/><text fill="#000000" font-family="sans-serif" font-size="14" lengthAdjust="spacing" textLength="178.1514" x="50" y="842.3613">MimeType : VARCHAR(100)</text><ellipse cx="41" cy="855.7422" fill="#000000" rx="3" ry="3" style="stroke:#000000;stroke-width:1;"/><text fill="#000000" font-family="sans-serif" font-size="14" lengthAdjust="spacing" textLength="161.8271" x="50" y="859.9707">Category : VARCHAR(20)</text><text fill="#000000" font-family="sans-serif" font-size="14" lengthAdjust="spacing" textLength="117.4756" x="50" y="877.5801">Description : TEXT</text></g><g id="elem_GMN8"><path d="M360,490.5 L360,565.9063 A0,0 0 0 0 360,565.9063 L470,565.9063 L474,600.48 L478,565.9063 L586.9688,565.9063 A0,0 0 0 0 586.9688,565.9063 L586.9688,500.5 L576.9688,490.5 L360,490.5 A0,0 0 0 0 360,490.5 " fill="#FEFFDD" style="stroke:#181818;stroke-width:0.5;"/><path d="M576.9688,490.5 L576.9688,500.5 L586.9688,500.5 L576.9688,490.5 " fill="#FEFFDD" style="stroke:#181818;stroke-width:0.5;"/><text fill="#000000" font-family="sans-serif" font-size="13" lengthAdjust="spacing" textLength="200.4526" x="366" y="508.9951">&#1054;&#1089;&#1085;&#1086;&#1074;&#1085;&#1072;&#1103; &#1089;&#1091;&#1097;&#1085;&#1086;&#1089;&#1090;&#1100; - &#1072;&#1091;&#1076;&#1080;&#1086;&#1092;&#1072;&#1081;&#1083;</text><ellipse cx="371.5" cy="520.7031" fill="#000000" rx="2.5" ry="2.5"/><text fill="#000000" font-family="sans-serif" font-size="13" lengthAdjust="spacing" textLength="126.6484" x="378" y="525.3467">- &#1086;&#1073;&#1103;&#1079;&#1072;&#1090;&#1077;&#1083;&#1100;&#1085;&#1099;&#1077; &#1087;&#1086;&#1083;&#1103;</text><text fill="#000000" font-family="sans-serif" font-size="13" lengthAdjust="spacing" textLength="128.5273" x="366" y="541.6982">PK - &#1087;&#1077;&#1088;&#1074;&#1080;&#1095;&#1085;&#1099;&#1081; &#1082;&#1083;&#1102;&#1095;</text><text fill="#000000" font-family="sans-serif" font-size="13" lengthAdjust="spacing" textLength="205.9688" x="366" y="558.0498">FK - &#1074;&#1085;&#1077;&#1096;&#1085;&#1080;&#1081; &#1082;&#1083;&#1102;&#1095; &#1082; FileExtension</text></g><g id="elem_GMN11"><path d="M715,598.5 L715,673.9063 A0,0 0 0 0 715,673.9063 L842,673.9063 L846,708.7 L850,673.9063 L975.7129,673.9063 A0,0 0 0 0 975.7129,673.9063 L975.7129,608.5 L965.7129,598.5 L715,598.5 A0,0 0 0 0 715,598.5 " fill="#FEFFDD" style="stroke:#181818;stroke-width:0.5;"/><path d="M965.7129,598.5 L965.7129,608.5 L975.7129,608.5 L965.7129,598.5 " fill="#FEFFDD" style="stroke:#181818;stroke-width:0.5;"/><text fill="#000000" font-family="sans-serif" font-size="13" lengthAdjust="spacing" textLength="239.2241" x="721" y="616.9951">&#1044;&#1086;&#1087;&#1086;&#1083;&#1085;&#1080;&#1090;&#1077;&#1083;&#1100;&#1085;&#1099;&#1077; &#1092;&#1072;&#1081;&#1083;&#1099; (&#1085;&#1086;&#1090;&#1099;, &#1090;&#1077;&#1082;&#1089;&#1090;&#1099;)</text><text fill="#000000" font-family="sans-serif" font-size="13" lengthAdjust="spacing" textLength="196.5552" x="721" y="633.3467">FK - &#1074;&#1085;&#1077;&#1096;&#1085;&#1080;&#1081; &#1082;&#1083;&#1102;&#1095; &#1082; MusicFile.id</text><text fill="#000000" font-family="sans-serif" font-size="13" lengthAdjust="spacing" textLength="226.9287" x="721" y="649.6982">FK2 - &#1074;&#1085;&#1077;&#1096;&#1085;&#1080;&#1081; &#1082;&#1083;&#1102;&#1095; &#1082; FileExtension.id</text><text fill="#000000" font-family="sans-serif" font-size="13" lengthAdjust="spacing" textLength="239.7129" x="721" y="666.0498">&#1057;&#1074;&#1103;&#1079;&#1100;: &#1086;&#1076;&#1080;&#1085; MusicFile &#8594; &#1084;&#1085;&#1086;&#1075;&#1086; ExtraFile</text></g><g id="elem_GMN14"><path d="M6,642.5 L6,717.9063 A0,0 0 0 0 6,717.9063 L128,717.9063 L132,752.97 L136,717.9063 L257.9595,717.9063 A0,0 0 0 0 257.9595,717.9063 L257.9595,652.5 L247.9595,642.5 L6,642.5 A0,0 0 0 0 6,642.5 " fill="#FEFFDD" style="stroke:#181818;stroke-width:0.5;"/><path d="M247.9595,642.5 L247.9595,652.5 L257.9595,652.5 L247.9595,642.5 " fill="#FEFFDD" style="stroke:#181818;stroke-width:0.5;"/><text fill="#000000" font-family="sans-serif" font-size="13" lengthAdjust="spacing" textLength="200.8716" x="12" y="660.9951">&#1057;&#1087;&#1088;&#1072;&#1074;&#1086;&#1095;&#1085;&#1080;&#1082; &#1088;&#1072;&#1089;&#1096;&#1080;&#1088;&#1077;&#1085;&#1080;&#1081; &#1092;&#1072;&#1081;&#1083;&#1086;&#1074;</text><text fill="#000000" font-family="sans-serif" font-size="13" lengthAdjust="spacing" textLength="177.9946" x="12" y="677.3467">Extension: ".mp3", ".jpg", ".pdf"</text><text fill="#000000" font-family="sans-serif" font-size="13" lengthAdjust="spacing" textLength="225.1196" x="12" y="693.6982">MimeType: "audio/mpeg", "image/jpeg"</text><text fill="#000000" font-family="sans-serif" font-size="13" lengthAdjust="spacing" textLength="230.9595" x="12" y="710.0498">&#1054;&#1076;&#1080;&#1085; &#1082;&#1086; &#1084;&#1085;&#1086;&#1075;&#1080;&#1084; &#1089; MusicFile &#1080; ExtraFile</text></g><!--link MusicFile to ExtraFile--><g id="link_MusicFile_ExtraFile"><path codeLine="51" d="M637.11,782.25 C656.82,782.25 651,782.25 670.72,782.25 " fill="#FFFFFF" fill-opacity="0.00000" id="MusicFile-ExtraFile" style="stroke:#181818;stroke-width:1;"/><line style="stroke:#181818;stroke-width:1;" x1="633.11" x2="633.11" y1="786.25" y2="778.25"/><line style="stroke:#181818;stroke-width:1;" x1="636.11" x2="636.11" y1="786.25" y2="778.25"/><line style="stroke:#181818;stroke-width:1;" x1="637.11" x2="629.11" y1="782.25" y2="782.25"/><line style="stroke:#181818;stroke-width:1;" x1="680.72" x2="688.72" y1="782.25" y2="776.25"/><line style="stroke:#181818;stroke-width:1;" x1="680.72" x2="688.72" y1="782.25" y2="788.25"/><line style="stroke:#181818;stroke-width:1;" x1="680.72" x2="688.72" y1="782.25" y2="782.25"/><ellipse cx="674.72" cy="782.25" fill="#FFFFFF" fill-opacity="0.00000" rx="4" ry="4" style="stroke:#181818;stroke-width:1;"/><text fill="#000000" font-family="sans-serif" font-size="13" lengthAdjust="spacing" textLength="36.6133" x="621.92" y="796.7451">&#1080;&#1084;&#1077;&#1077;&#1090;</text></g><!--link FileExtension to MusicFile--><g id="link_FileExtension_MusicFile"><path codeLine="52" d="M242.46,804.25 C268.69,804.25 271.49,804.25 299.74,804.25 " fill="#FFFFFF" fill-opacity="0.00000" id="FileExtension-MusicFile" style="stroke:#181818;stroke-width:1;"/><line style="stroke:#181818;stroke-width:1;" x1="238.46" x2="238.46" y1="808.25" y2="800.25"/><line style="stroke:#181818;stroke-width:1;" x1="241.46" x2="241.46" y1="808.25" y2="800.25"/><line style="stroke:#181818;stroke-width:1;" x1="242.46" x2="234.46" y1="804.25" y2="804.25"/><line style="stroke:#181818;stroke-width:1;" x1="309.74" x2="317.74" y1="804.25" y2="798.25"/><line style="stroke:#181818;stroke-width:1;" x1="309.74" x2="317.74" y1="804.25" y2="810.25"/><line style="stroke:#181818;stroke-width:1;" x1="309.74" x2="317.74" y1="804.25" y2="804.25"/><ellipse cx="303.74" cy="804.25" fill="#FFFFFF" fill-opacity="0.00000" rx="4" ry="4" style="stroke:#181818;stroke-width:1;"/></g><!--link FileExtension to ExtraFile--><g id="link_FileExtension_ExtraFile"><path codeLine="53" d="M242.23,870.25 C361.1,870.25 532.65,870.25 670.9,870.25 " fill="#FFFFFF" fill-opacity="0.00000" id="FileExtension-ExtraFile" style="stroke:#181818;stroke-width:1;"/><line style="stroke:#181818;stroke-width:1;" x1="238.23" x2="238.23" y1="874.25" y2="866.25"/><line style="stroke:#181818;stroke-width:1;" x1="241.23" x2="241.23" y1="874.25" y2="866.25"/><line style="stroke:#181818;stroke-width:1;" x1="242.23" x2="234.23" y1="870.25" y2="870.25"/><line style="stroke:#181818;stroke-width:1;" x1="680.9" x2="688.9" y1="870.25" y2="864.25"/><line style="stroke:#181818;stroke-width:1;" x1="680.9" x2="688.9" y1="870.25" y2="876.25"/><line style="stroke:#181818;stroke-width:1;" x1="680.9" x2="688.9" y1="870.25" y2="870.25"/><ellipse cx="674.9" cy="870.25" fill="#FFFFFF" fill-opacity="0.00000" rx="4" ry="4" style="stroke:#181818;stroke-width:1;"/><text fill="#000000" font-family="sans-serif" font-size="13" lengthAdjust="spacing" textLength="92.0918" x="368.56" y="884.7451">&#1080;&#1089;&#1087;&#1086;&#1083;&#1100;&#1079;&#1091;&#1077;&#1090;&#1089;&#1103; &#1074;</text></g><!--link FE1 to MF1--><g id="link_FE1_MF1"><path codeLine="127" d="M187.25,249 C245.77,249 332.36,249 396.31,249 " fill="#FFFFFF" fill-opacity="0.00000" id="FE1-to-MF1" style="stroke:#181818;stroke-width:1;"/><polygon fill="#181818" points="402.31,249,393.31,245,397.31,249,393.31,253,402.31,249" style="stroke:#181818;stroke-width:1;"/><text fill="#000000" font-family="sans-serif" font-size="13" lengthAdjust="spacing" textLength="107.396" x="186.78" y="263.4951">&#1080;&#1089;&#1087;&#1086;&#1083;&#1100;&#1079;&#1091;&#1077;&#1090;&#1089;&#1103; &#1076;&#1083;&#1103;</text></g><!--link MF1 to EF1--><g id="link_MF1_EF1"><path codeLine="128" d="M544.79,207.5 C608.18,207.5 694.75,207.5 760.41,207.5 " fill="#FFFFFF" fill-opacity="0.00000" id="MF1-to-EF1" style="stroke:#181818;stroke-width:1;"/><polygon fill="#181818" points="766.41,207.5,757.41,203.5,761.41,207.5,757.41,211.5,766.41,207.5" style="stroke:#181818;stroke-width:1;"/><text fill="#000000" font-family="sans-serif" font-size="13" lengthAdjust="spacing" textLength="57.6875" x="597.6" y="221.9951">&#1089;&#1086;&#1076;&#1077;&#1088;&#1078;&#1080;&#1090;</text></g><!--link MF1 to EF2--><g id="link_MF1_EF2"><path codeLine="129" d="M537,306.22 C537,316.22 537,323.5 537,323.5 C537,323.5 708.62,323.5 794.31,323.5 " fill="#FFFFFF" fill-opacity="0.00000" id="MF1-to-EF2" style="stroke:#181818;stroke-width:1;"/><polygon fill="#181818" points="800.31,323.5,791.31,319.5,795.31,323.5,791.31,327.5,800.31,323.5" style="stroke:#181818;stroke-width:1;"/><text fill="#000000" font-family="sans-serif" font-size="13" lengthAdjust="spacing" textLength="57.6875" x="602.02" y="337.9951">&#1089;&#1086;&#1076;&#1077;&#1088;&#1078;&#1080;&#1090;</text></g><!--link FE2 to EF1--><g id="link_FE2_EF1"><path codeLine="130" d="M528.79,142 C591.74,142 689.07,142 760.5,142 " fill="#FFFFFF" fill-opacity="0.00000" id="FE2-to-EF1" style="stroke:#181818;stroke-width:1;"/><polygon fill="#181818" points="766.5,142,757.5,138,761.5,142,757.5,146,766.5,142" style="stroke:#181818;stroke-width:1;"/><text fill="#000000" font-family="sans-serif" font-size="13" lengthAdjust="spacing" textLength="107.396" x="539.64" y="156.4951">&#1080;&#1089;&#1087;&#1086;&#1083;&#1100;&#1079;&#1091;&#1077;&#1090;&#1089;&#1103; &#1076;&#1083;&#1103;</text></g><!--link FE3 to EF2--><g id="link_FE3_EF2"><path codeLine="131" d="M528.79,370.5 C602.67,370.5 726.17,370.5 794.44,370.5 " fill="#FFFFFF" fill-opacity="0.00000" id="FE3-to-EF2" style="stroke:#181818;stroke-width:1;"/><polygon fill="#181818" points="800.44,370.5,791.44,366.5,795.44,370.5,791.44,374.5,800.44,370.5" style="stroke:#181818;stroke-width:1;"/><text fill="#000000" font-family="sans-serif" font-size="13" lengthAdjust="spacing" textLength="107.396" x="556.61" y="384.9951">&#1080;&#1089;&#1087;&#1086;&#1083;&#1100;&#1079;&#1091;&#1077;&#1090;&#1089;&#1103; &#1076;&#1083;&#1103;</text></g><!--SRC=[bLPHRnf747w_Np6Y3t6YODTOLLKhiaHiI6Y2JGrDgxvjkJLi0dUduv12aqW4jtKhHqMj-jf4wI-WhXrZOyDVsFqB_IMTdRlZxZ3KxWDmkpEtCzyttyno2-GVSg1Ugvxgoh4ya-To27AiUhZu2xS6yeCyaPTogFf6NPWSgiAjDhZHUYOiXxci2GrXSQ_ZSB1Thsx730whFcCrNlOw3GukhthCgk6R3RxdWMU3Asfr3qoXBSAs3ECMoBVgDSOQooFy7gW-O5xxwcUzHHc-MGTveVRbgJh4F0TofDx8Itm-0_KzBi_aoE2M9xmE5DijKSqB3Fp20BW3meHrA6nNuDwzqgED3TnBfycmXpuMQt8qLt9VLwPx3lFgyJqyjP5mOgudMbwqmnhVjflHiiEPwuV4HOrRxfK8BV6TthjVUE0xtG6pxJ9DXVzURlT9zZ7jjvs6pSmjvj4PXMAkNCaMI_1LeVAGbl3DpdQEF3NYt7EFMoqyfX1XpclChuZYzqb6GHuZtnFyZAZAFQnsGAlwOKghBab8BPxliXYrXKNKxc25XSKQsdTxXkAoPxlSd6VHUwKPyhTug-eA9-0cuLhHoWjvzhVALuZzyiO4JdKpIzxDsDsSbQlk87p-2PdjXdqqbzN4sTSn6pckmvFixkR3xExIwiUtVGIY6P8IcGBR9Z9GizrEp9OXqno2VRMybHDA_5ZBmWSWJx0jvP7gorCQ5MWRoiiqDkGuBI-eVV_6dGiZwi6NBzDf-qLCEUkGqYvuu8dgfOma-C0xUds-VUOqp8bKZDeznH61voBlVP17AGBo3c5GH7M0vFjrqEdZEwfFKoUSSfQDCl5i1-ozA0VawDhX16d0_NtYOpmTI9htDD0qrOmDuXs6L0P9zz6lz4WxJZ35BiOOOgB-R4DcH-eNTO0kUNBH2PoWfdGn8ZC-95M4qZ91ep4IcAQyQKo_Bsf-NUK0WZg49KBPKuTtWPpE2V7XxHkaDALmMPZadlaV4Fntv7jVRZJ_0xt5vF7FZx_1L7ZZ6Bxv-9CSqUaJkkYE4E81PNG-fszZbmprBKHTYFfRRZfhgRlu-zIfqQzZxgNG9-n6T65jKzWhJOUJWsZYrRZoLAz8Mm4gtKKGxo9KMGmgAdOUFDJthvJMkNOdEBxMDQmBBVDZ4ZqDTIEubx5fegRe9bnID80W64sfPFjzj9e2re9yRjNt0esT7cWwuKqu1HejwQbOMeDii7g57sDXY4mG8XE6G3eJ8Hod8QfqMQw49jEkjfju7YrAMtdOYZR-EzfQ46qjZ8P5Z4UBQXKjwUdpKku1588b3imeGbIoWAvYFgJhlbtdJS4isAqpfsMRdNYeBzgSM_IKXMtwWyJmprATmux3NKQ6rSy-_UGgf6WQ1W5pqu3u1uzwLvTuv5y_OzMbFfvW-NNLn_4S74pEdZ9UhdFk4HnOehjYSU1C43Yiclmp71N-MDFZSnYFrEYuejfQzfxxHNjCIrZA-67y6-YTbZKcIQCJXspixfchTKCBCvtU8CPnNYoy68WCGtjfxnnvew-UB_gm3teUnioPUMQjqEZjws9fXKM7NUTj_0i0]--></g></svg>